<svg width="190" height="43" viewBox="0 0 190 43" fill="none" xmlns="http://www.w3.org/2000/svg">
<path fill-rule="evenodd" clip-rule="evenodd" d="M14.6458 5.36116L17.0693 10.6104L19.4927 5.36115C19.7378 4.94084 19.8784 4.45112 19.8784 3.92831C19.8784 2.36458 18.6207 1.09693 17.0693 1.09693C15.5178 1.09693 14.2601 2.36458 14.2601 3.92831C14.2601 4.45113 14.4007 4.94084 14.6458 5.36116Z" fill="#C5161D"/>
<path fill-rule="evenodd" clip-rule="evenodd" d="M4.25865 36.3509C-1.69702 29.1193 0.999627 1.09668 0.999627 1.09668C0.999627 1.09668 14.4274 8.57151 14.4274 15.7632C14.4274 22.9549 9.25854 24.2007 9.25854 24.2007C17.068 26.4092 17.068 35.9226 17.068 35.9226C17.068 35.9226 17.5174 25.8429 24.8774 24.2007C24.7843 24.1538 24.688 24.1062 24.589 24.0574C22.7778 23.1632 20.0786 21.8306 19.6524 15.7632C19.2029 9.3643 29.6437 2.92505 33.1364 1.09668C33.1364 1.09668 36.1702 27.1984 29.5406 36.3509C22.911 45.5035 10.2143 43.5826 4.25865 36.3509ZM28.5687 32.0117C32.237 26.259 30.8614 5.84244 30.8614 5.84244C30.5649 6.02992 30.2192 6.23688 29.8394 6.46423C26.9127 8.21603 21.9637 11.1783 21.9637 15.7664C21.9637 21.19 27.313 23.9279 29.0726 24.6025C21.8984 28.137 18.6374 30.3308 17.8548 39.2888C22.7221 38.3284 24.9004 37.7644 28.5687 32.0117ZM3.49979 5.84244C3.49979 5.84244 2.1242 26.259 5.79249 32.0117C9.46078 37.7644 11.6391 38.3284 16.5064 39.2888C15.7238 30.3308 12.4628 28.137 5.28855 24.6025C7.0482 23.9279 12.3975 21.19 12.3975 15.7664C12.3975 11.1783 7.44852 8.21603 4.52183 6.46423C4.14201 6.23688 3.79625 6.02992 3.49979 5.84244Z" fill="#FFFAFE"/>
<path fill-rule="evenodd" clip-rule="evenodd" d="M1.16307 0.799932L0.999811 1.09651L0.66428 1.06385L0.713748 0.549805L1.16307 0.799932ZM10.2609 24.1758C10.7643 23.9326 11.4188 23.5394 12.0729 22.9267C13.4345 21.6513 14.7647 19.4516 14.7647 15.763C14.7647 13.8614 13.8792 11.9749 12.6005 10.2359C11.3188 8.49264 9.61721 6.86392 7.92742 5.47074C6.23593 4.07617 4.54611 2.90938 3.28008 2.09161C2.64674 1.68251 2.11867 1.36025 1.74843 1.13999C1.56329 1.02984 1.41757 0.945176 1.31784 0.887875C1.26797 0.859223 1.22959 0.837411 1.20352 0.822676L1.17376 0.805909L1.16599 0.80156L1.16335 0.800083C1.16318 0.799993 1.16307 0.799932 0.999811 1.09651C0.66428 1.06385 0.664266 1.064 0.664242 1.06425L0.662288 1.08482C0.660994 1.09854 0.659086 1.1189 0.656605 1.14574C0.651644 1.19943 0.644395 1.279 0.635206 1.38297C0.616827 1.59091 0.590683 1.89645 0.559548 2.28768C0.497279 3.07012 0.415032 4.19543 0.334997 5.56819C0.174957 8.31324 0.0236263 12.0501 0.0588633 16.0148C0.0940846 19.9778 0.315744 24.1775 0.904272 27.8454C1.49017 31.4969 2.44848 34.684 3.99921 36.567C7.03969 40.2588 11.7922 42.5887 16.6302 42.8334C21.4776 43.0785 26.4239 41.2295 29.8133 36.5503C31.5163 34.1992 32.5808 30.7904 33.2316 27.0393C33.8838 23.2802 34.1267 19.1394 34.1619 15.2945C34.1971 11.4483 34.0245 7.89025 33.8433 5.29416C33.7526 3.99588 33.6598 2.9376 33.5895 2.20347C33.5544 1.83639 33.5249 1.55032 33.5042 1.35577C33.4938 1.25849 33.4856 1.18409 33.48 1.13389C33.4772 1.10878 33.4751 1.08973 33.4736 1.07688L33.472 1.0623L33.4715 1.05854L33.4714 1.05755C33.4714 1.0573 33.4714 1.05715 33.1365 1.09651L33.4714 1.05715L33.4146 0.568784L32.9809 0.795824C31.22 1.71763 27.7115 3.79897 24.694 6.46099C23.1851 7.79206 21.7878 9.27802 20.7943 10.8469C19.8015 12.4148 19.1971 14.0895 19.3163 15.7869C19.5329 18.8696 20.3302 20.791 21.338 22.0614C22.1667 23.1063 23.1206 23.6869 23.938 24.1094C20.6545 25.2024 18.8658 28.0015 17.8979 30.5566C17.5308 31.5256 17.2782 32.4677 17.1048 33.2836C16.9573 32.5291 16.7371 31.6664 16.4082 30.7721C15.4881 28.2702 13.7038 25.491 10.2609 24.1758ZM9.18015 23.8709L9.1805 23.8708L9.18811 23.8688C9.19555 23.8669 9.20766 23.8636 9.22414 23.8589C9.25709 23.8494 9.30745 23.8341 9.37273 23.8119C9.50336 23.7674 9.69333 23.6953 9.92289 23.5868C10.3823 23.3695 10.9976 23.0074 11.6134 22.4306C12.8362 21.2852 14.0905 19.2661 14.0905 15.763C14.0905 14.0688 13.2975 12.3241 12.0584 10.6389C10.8225 8.95795 9.1671 7.36952 7.49996 5.99502C5.83451 4.62192 4.16739 3.47053 2.91571 2.66203C2.2902 2.25799 1.76923 1.94009 1.40514 1.72348C1.3642 1.69913 1.32525 1.67606 1.28836 1.65429C1.27252 1.83876 1.25328 2.06929 1.2316 2.34177C1.16966 3.12006 1.08776 4.24052 1.00804 5.60787C0.848574 8.34305 0.697973 12.0638 0.733034 16.0087C0.76811 19.9554 0.988978 24.1172 1.56986 27.7374C2.15337 31.3741 3.09136 34.4017 4.51846 36.1345C7.43365 39.6743 12.0073 41.9207 16.664 42.1563C21.3113 42.3913 26.0281 40.6245 29.2683 36.1512C30.8801 33.926 31.9225 30.6399 32.5674 26.9228C33.211 23.2136 33.4527 19.113 33.4877 15.2883C33.5227 11.465 33.3511 7.92564 33.1707 5.34165C33.0805 4.04989 32.9882 2.99747 32.9184 2.26841C32.8942 2.01587 32.8728 1.80215 32.8551 1.63074C31.0223 2.62835 27.8703 4.56076 25.1386 6.97064C23.6568 8.2778 22.3099 9.71572 21.363 11.211C20.4155 12.7073 19.8833 14.2371 19.9889 15.7392C20.1985 18.7239 20.9638 20.5025 21.865 21.6387C22.7682 22.7773 23.8333 23.3064 24.7377 23.7529C24.8365 23.8016 24.9341 23.8498 25.0287 23.8975L25.8767 24.3248L24.9506 24.5315C21.432 25.3166 19.5427 28.1191 18.5279 30.798C18.0221 32.1332 17.7408 33.421 17.5861 34.3763C17.5089 34.8534 17.4635 35.2461 17.4374 35.5186C17.4244 35.6548 17.4162 35.7608 17.4113 35.8321C17.4089 35.8678 17.4072 35.8948 17.4062 35.9126C17.4057 35.9215 17.4054 35.9281 17.4052 35.9323L17.405 35.9367L17.4049 35.9376C17.4049 35.9376 17.4049 35.9377 17.401 35.9375L16.7361 35.9225C16.7311 35.9226 16.7311 35.9226 16.7311 35.9226L16.7311 35.9218L16.7311 35.9177C16.731 35.9148 16.731 35.9105 16.7309 35.905L16.7309 35.8996C16.7306 35.883 16.7302 35.8578 16.7293 35.8243C16.7275 35.7573 16.7238 35.6575 16.7164 35.529C16.7016 35.2718 16.6718 34.8999 16.612 34.446C16.4923 33.5371 16.253 32.3047 15.7758 31.0072C14.8215 28.4122 12.9315 25.5913 9.16746 24.5269L7.92101 24.1744L9.17941 23.8711L9.17979 23.871L9.18015 23.8709ZM3.20178 5.25326L3.67943 5.55531C3.97168 5.74013 4.31358 5.9448 4.69444 6.17277L4.70561 6.17945C6.16371 7.05222 8.15917 8.24662 9.78968 9.8059C11.4247 11.3695 12.7348 13.34 12.7348 15.7663C12.7348 18.602 11.3334 20.7263 9.73184 22.2142C8.47307 23.3836 7.07751 24.1734 6.09875 24.6259C9.34868 26.2473 11.805 27.6562 13.5498 29.6902C15.4235 31.8748 16.4478 34.7423 16.8424 39.2589L16.8816 39.708L16.4417 39.6212C14.0163 39.1427 12.1959 38.7532 10.5255 37.7373C8.84972 36.718 7.35446 35.0888 5.50891 32.1945C4.54971 30.6903 3.94082 28.272 3.55317 25.5436C3.16356 22.8014 2.99114 19.6947 2.93368 16.7763C2.8762 13.8566 2.93368 11.1181 3.00547 9.11006C3.04138 8.10583 3.08087 7.28382 3.11142 6.71258C3.12669 6.42695 3.13972 6.20399 3.14895 6.05227C3.15356 5.97641 3.15722 5.91835 3.15974 5.87918L3.16263 5.83471L3.16362 5.81965C3.16364 5.81946 3.16364 5.81935 3.49997 5.84227L3.16364 5.81935L3.20178 5.25326ZM3.80238 6.42651C3.79693 6.52266 3.79098 6.63035 3.78464 6.74898C3.75429 7.31674 3.71498 8.13471 3.67923 9.13442C3.60774 11.1342 3.55059 13.8594 3.60775 16.7629C3.66494 19.6677 3.83643 22.7439 4.22059 25.4477C4.60673 28.1654 5.2015 30.4564 6.07645 31.8286C7.89919 34.687 9.32722 36.2161 10.8744 37.1572C12.3315 38.0433 13.9205 38.4261 16.1288 38.8681C15.7136 34.6922 14.7254 32.0989 13.0392 30.1331C11.2808 28.0829 8.73423 26.6773 5.14042 24.9068L4.44371 24.5635L5.16865 24.2856C6.0221 23.9584 7.75794 23.125 9.27434 21.7162C10.7874 20.3105 12.0606 18.3541 12.0606 15.7663C12.0606 13.6044 10.8962 11.7997 9.32507 10.2972C7.75357 8.79433 5.81721 7.6338 4.3496 6.75534L4.34688 6.75372C4.15723 6.64019 3.9749 6.53106 3.80238 6.42651ZM31.1598 5.25326L31.1979 5.81935L30.8616 5.84227C31.1979 5.81935 31.1979 5.81946 31.1979 5.81965L31.1989 5.83471L31.2018 5.87918C31.2043 5.91835 31.208 5.97641 31.2126 6.05227C31.2218 6.20399 31.2349 6.42695 31.2502 6.71258C31.2807 7.28382 31.3202 8.10583 31.3561 9.11006C31.4279 11.1181 31.4854 13.8566 31.4279 16.7763C31.3704 19.6947 31.198 22.8014 30.8084 25.5436C30.4207 28.272 29.8118 30.6903 28.8527 32.1945C27.0071 35.0888 25.5118 36.718 23.836 37.7373C22.1656 38.7532 20.3453 39.1427 17.9199 39.6212L17.4799 39.708L17.5192 39.2589C17.9138 34.7423 18.938 31.8748 20.8118 29.6902C22.5565 27.6562 25.0129 26.2473 28.2628 24.6259C27.2841 24.1734 25.8885 23.3836 24.6297 22.2142C23.0282 20.7263 21.6267 18.602 21.6267 15.7663C21.6267 13.34 22.9368 11.3695 24.5719 9.8059C26.2024 8.24662 28.1979 7.05222 29.656 6.17945L29.6671 6.17277C30.048 5.9448 30.3899 5.74013 30.6821 5.55531L31.1598 5.25326ZM30.5592 6.42651C30.3866 6.5311 30.2042 6.64027 30.0145 6.75384L30.012 6.75534C28.5444 7.6338 26.608 8.79433 25.0365 10.2972C23.4654 11.7997 22.3009 13.6044 22.3009 15.7663C22.3009 18.3541 23.5742 20.3105 25.0872 21.7162C26.6036 23.125 28.3395 23.9584 29.1929 24.2856L29.9179 24.5635L29.2211 24.9068C25.6273 26.6773 23.0808 28.0829 21.3223 30.1331C19.6362 32.0989 18.648 34.6922 18.2328 38.8681C20.4411 38.4261 22.0301 38.0433 23.4871 37.1572C25.0343 36.2161 26.4624 34.687 28.2851 31.8286C29.1601 30.4564 29.7548 28.1654 30.141 25.4477C30.5251 22.7439 30.6966 19.6677 30.7538 16.7629C30.811 13.8594 30.7538 11.1342 30.6823 9.13442C30.6466 8.13471 30.6073 7.31674 30.5769 6.74898C30.5706 6.63035 30.5646 6.52266 30.5592 6.42651Z" fill="#FFFAFE"/>
<path d="M187.11 36.5922L187.253 37.4695C186.975 37.5283 186.726 37.5578 186.507 37.5578C186.148 37.5578 185.87 37.5007 185.673 37.3867C185.475 37.2727 185.336 37.1237 185.256 36.9398C185.175 36.7522 185.135 36.3605 185.135 35.7646V32.3936H184.411V31.6211H185.135V30.1701L186.117 29.5742V31.6211H187.11V32.3936H186.117V35.8198C186.117 36.103 186.133 36.2851 186.166 36.366C186.203 36.4469 186.26 36.5113 186.336 36.5591C186.417 36.6069 186.53 36.6308 186.677 36.6308C186.786 36.6308 186.931 36.618 187.11 36.5922Z" fill="#E5E5E7"/>
<path d="M178.699 37.4801V31.6207H179.588V32.4538C180.016 31.8101 180.634 31.4883 181.443 31.4883C181.794 31.4883 182.116 31.5526 182.408 31.6814C182.704 31.8064 182.926 31.972 183.072 32.1779C183.218 32.3839 183.321 32.6285 183.379 32.9117C183.416 33.0957 183.434 33.4175 183.434 33.8773V37.4801H182.447V33.9159C182.447 33.5113 182.408 33.2097 182.331 33.0111C182.255 32.8088 182.117 32.6488 181.92 32.5311C181.726 32.4097 181.497 32.349 181.234 32.349C180.813 32.349 180.449 32.4832 180.142 32.7517C179.839 33.0203 179.687 33.5297 179.687 34.28V37.4801H178.699Z" fill="#E5E5E7"/>
<path d="M176.433 35.5932L177.454 35.7201C177.293 36.3196 176.995 36.7849 176.559 37.1159C176.124 37.447 175.568 37.6125 174.891 37.6125C174.039 37.6125 173.363 37.3495 172.861 36.8235C172.364 36.2939 172.115 35.5527 172.115 34.6C172.115 33.6143 172.368 32.8492 172.872 32.3048C173.377 31.7605 174.032 31.4883 174.837 31.4883C175.616 31.4883 176.252 31.755 176.746 32.2883C177.24 32.8216 177.487 33.572 177.487 34.5393C177.487 34.5982 177.485 34.6865 177.481 34.8042H173.136C173.172 35.4479 173.353 35.9407 173.679 36.2828C174.004 36.6249 174.41 36.7959 174.897 36.7959C175.259 36.7959 175.568 36.7003 175.824 36.509C176.08 36.3178 176.283 36.0125 176.433 35.5932ZM173.191 33.9876H176.444C176.4 33.4947 176.276 33.1251 176.071 32.8786C175.757 32.4961 175.349 32.3048 174.848 32.3048C174.394 32.3048 174.012 32.4575 173.701 32.7628C173.394 33.0681 173.224 33.4763 173.191 33.9876Z" fill="#E5E5E7"/>
<path d="M168.445 37.4805L166.228 31.6211H167.27L168.521 35.1301C168.657 35.509 168.781 35.9025 168.895 36.3108C168.982 36.0018 169.105 35.6303 169.262 35.1963L170.557 31.6211H171.572L169.366 37.4805H168.445Z" fill="#E5E5E7"/>
<path d="M159.479 37.48V29.3916H165.295V30.3461H160.544V32.8234H164.994V33.7723H160.544V36.5255H165.482V37.48H159.479Z" fill="#E5E5E7"/>
<path d="M150.542 39.737L150.432 38.8046C150.648 38.8635 150.836 38.8929 150.997 38.8929C151.216 38.8929 151.392 38.8561 151.524 38.7826C151.655 38.709 151.763 38.606 151.847 38.4736C151.91 38.3743 152.01 38.1278 152.149 37.7343C152.167 37.6791 152.197 37.5982 152.237 37.4915L150.026 31.6211H151.09L152.303 35.0142C152.46 35.4446 152.601 35.897 152.725 36.3715C152.839 35.9154 152.974 35.4703 153.131 35.0363L154.377 31.6211H155.364L153.148 37.5798C152.91 38.2235 152.725 38.6667 152.594 38.9095C152.418 39.2368 152.217 39.4759 151.99 39.6267C151.763 39.7812 151.493 39.8584 151.178 39.8584C150.988 39.8584 150.776 39.818 150.542 39.737Z" fill="#E5E5E7"/>
<path d="M149.614 36.5922L149.757 37.4695C149.479 37.5283 149.23 37.5578 149.011 37.5578C148.652 37.5578 148.374 37.5007 148.177 37.3867C147.979 37.2727 147.84 37.1237 147.76 36.9398C147.68 36.7522 147.639 36.3605 147.639 35.7646V32.3936H146.915V31.6211H147.639V30.1701L148.621 29.5742V31.6211H149.614V32.3936H148.621V35.8198C148.621 36.103 148.638 36.2851 148.671 36.366C148.707 36.4469 148.764 36.5113 148.841 36.5591C148.921 36.6069 149.035 36.6308 149.181 36.6308C149.291 36.6308 149.435 36.618 149.614 36.5922Z" fill="#E5E5E7"/>
<path d="M144.962 30.5337V29.3916H145.95V30.5337H144.962ZM144.962 37.48V31.6206H145.95V37.48H144.962Z" fill="#E5E5E7"/>
<path d="M141.203 37.4801V31.6207H142.092V32.509C142.319 32.0933 142.527 31.8193 142.717 31.6869C142.911 31.5545 143.123 31.4883 143.354 31.4883C143.687 31.4883 144.025 31.5949 144.369 31.8083L144.029 32.7297C143.787 32.5862 143.546 32.5145 143.305 32.5145C143.089 32.5145 142.895 32.5807 142.723 32.7131C142.551 32.8419 142.428 33.0221 142.355 33.2538C142.246 33.6069 142.191 33.9931 142.191 34.4125V37.4801H141.203Z" fill="#E5E5E7"/>
<path d="M138.762 36.7573C138.396 37.07 138.043 37.2906 137.703 37.4194C137.366 37.5481 137.004 37.6125 136.617 37.6125C135.977 37.6125 135.485 37.4562 135.141 37.1435C134.797 36.8272 134.625 36.4244 134.625 35.9352C134.625 35.6483 134.689 35.3872 134.817 35.1518C134.949 34.9127 135.119 34.7214 135.327 34.578C135.539 34.4345 135.777 34.326 136.041 34.2524C136.234 34.201 136.527 34.1513 136.918 34.1035C137.716 34.0078 138.303 33.8938 138.68 33.7614C138.683 33.6253 138.685 33.5389 138.685 33.5021C138.685 33.0975 138.592 32.8124 138.405 32.6469C138.153 32.4225 137.778 32.3104 137.281 32.3104C136.816 32.3104 136.472 32.3931 136.249 32.5586C136.03 32.7205 135.867 33.0092 135.761 33.4249L134.795 33.2924C134.883 32.8768 135.027 32.5421 135.229 32.2883C135.43 32.0308 135.72 31.834 136.101 31.6979C136.481 31.5582 136.922 31.4883 137.423 31.4883C137.921 31.4883 138.325 31.5471 138.636 31.6648C138.947 31.7825 139.175 31.9315 139.322 32.1117C139.468 32.2883 139.57 32.5127 139.629 32.7848C139.662 32.954 139.678 33.2593 139.678 33.7007V35.0249C139.678 35.9481 139.698 36.5329 139.739 36.7794C139.782 37.0221 139.867 37.2557 139.991 37.4801H138.959C138.857 37.2741 138.791 37.0332 138.762 36.7573ZM138.68 34.5393C138.321 34.6865 137.783 34.8115 137.067 34.9145C136.661 34.9734 136.373 35.0396 136.205 35.1131C136.037 35.1867 135.907 35.2952 135.816 35.4387C135.724 35.5784 135.678 35.7348 135.678 35.9076C135.678 36.1725 135.777 36.3932 135.975 36.5697C136.176 36.7463 136.469 36.8345 136.853 36.8345C137.233 36.8345 137.571 36.7518 137.868 36.5863C138.164 36.4171 138.382 36.1872 138.521 35.8966C138.627 35.6722 138.68 35.3412 138.68 34.9035V34.5393Z" fill="#E5E5E7"/>
<path d="M128.705 37.48V29.3916H129.692V32.2937C130.153 31.7567 130.735 31.4882 131.437 31.4882C131.869 31.4882 132.243 31.5746 132.562 31.7475C132.88 31.9167 133.107 32.1521 133.242 32.4537C133.381 32.7553 133.451 33.193 133.451 33.7668V37.48H132.463V33.7668C132.463 33.2703 132.355 32.9098 132.139 32.6854C131.927 32.4574 131.625 32.3434 131.234 32.3434C130.941 32.3434 130.665 32.4206 130.405 32.5751C130.149 32.7259 129.967 32.9319 129.857 33.193C129.747 33.4542 129.692 33.8146 129.692 34.2744V37.48H128.705Z" fill="#E5E5E7"/>
<path d="M126.45 34.6443L127.514 34.9147C127.291 35.7937 126.889 36.465 126.307 36.9285C125.729 37.3883 125.021 37.6181 124.184 37.6181C123.317 37.6181 122.611 37.4416 122.066 37.0885C121.524 36.7317 121.111 36.2167 120.826 35.5436C120.544 34.8705 120.403 34.1478 120.403 33.3753C120.403 32.533 120.562 31.7992 120.881 31.1739C121.203 30.545 121.658 30.0686 122.247 29.7449C122.839 29.4176 123.49 29.2539 124.2 29.2539C125.005 29.2539 125.681 29.4599 126.23 29.8718C126.779 30.2838 127.161 30.8631 127.377 31.6098L126.329 31.8581C126.142 31.2696 125.872 30.8411 125.517 30.5725C125.162 30.304 124.716 30.1698 124.178 30.1698C123.56 30.1698 123.042 30.3187 122.625 30.6167C122.212 30.9146 121.921 31.3155 121.753 31.8195C121.585 32.3197 121.501 32.8365 121.501 33.3698C121.501 34.0576 121.599 34.659 121.797 35.174C121.998 35.6852 122.309 36.0678 122.73 36.3216C123.15 36.5754 123.606 36.7023 124.096 36.7023C124.692 36.7023 125.197 36.5294 125.61 36.1836C126.023 35.8379 126.303 35.3248 126.45 34.6443Z" fill="#E5E5E7"/>
<path d="M114.56 36.5257C114.235 36.8899 113.88 37.1639 113.496 37.3478C113.112 37.528 112.697 37.6181 112.25 37.6181C111.427 37.6181 110.774 37.3386 110.292 36.7795C109.9 36.3234 109.705 35.814 109.705 35.2512C109.705 34.751 109.864 34.3004 110.182 33.8995C110.504 33.4949 110.983 33.1399 111.619 32.8346C111.257 32.4153 111.016 32.0751 110.895 31.8139C110.774 31.5528 110.714 31.3008 110.714 31.0581C110.714 30.5725 110.903 30.1514 111.279 29.7946C111.66 29.4341 112.137 29.2539 112.711 29.2539C113.26 29.2539 113.708 29.4231 114.055 29.7615C114.407 30.0999 114.582 30.5063 114.582 30.9808C114.582 31.7496 114.076 32.4061 113.062 32.9505L114.505 34.7988C114.67 34.4751 114.798 34.0999 114.889 33.6733L115.915 33.894C115.74 34.6002 115.502 35.1813 115.202 35.6374C115.572 36.1303 115.99 36.5441 116.459 36.8788L115.795 37.6678C115.396 37.4103 114.985 37.0296 114.56 36.5257ZM112.552 32.3105C112.98 32.0567 113.256 31.8342 113.381 31.6429C113.509 31.4516 113.573 31.2401 113.573 31.0084C113.573 30.7325 113.485 30.5082 113.309 30.3353C113.137 30.1587 112.922 30.0705 112.662 30.0705C112.395 30.0705 112.172 30.1569 111.993 30.3298C111.817 30.5027 111.729 30.7142 111.729 30.9643C111.729 31.0893 111.76 31.2217 111.822 31.3615C111.888 31.4976 111.985 31.6429 112.113 31.7974L112.552 32.3105ZM113.94 35.7423L112.13 33.4857C111.596 33.8057 111.235 34.1036 111.049 34.3795C110.862 34.6517 110.769 34.922 110.769 35.1905C110.769 35.5179 110.899 35.8581 111.159 36.2112C111.418 36.5643 111.786 36.7409 112.261 36.7409C112.558 36.7409 112.863 36.6489 113.178 36.465C113.496 36.2774 113.75 36.0365 113.94 35.7423Z" fill="#E5E5E7"/>
<path d="M104.569 35.5932L105.589 35.7201C105.429 36.3196 105.13 36.7849 104.695 37.1159C104.26 37.447 103.704 37.6125 103.027 37.6125C102.175 37.6125 101.498 37.3495 100.997 36.8235C100.5 36.2939 100.251 35.5527 100.251 34.6C100.251 33.6143 100.503 32.8492 101.008 32.3048C101.513 31.7605 102.168 31.4883 102.972 31.4883C103.751 31.4883 104.388 31.755 104.882 32.2883C105.375 32.8216 105.622 33.572 105.622 34.5393C105.622 34.5982 105.621 34.6865 105.617 34.8042H101.271C101.308 35.4479 101.489 35.9407 101.815 36.2828C102.14 36.6249 102.546 36.7959 103.033 36.7959C103.395 36.7959 103.704 36.7003 103.96 36.509C104.216 36.3178 104.419 36.0125 104.569 35.5932ZM101.326 33.9876H104.58C104.536 33.4947 104.412 33.1251 104.207 32.8786C103.892 32.4961 103.484 32.3048 102.983 32.3048C102.53 32.3048 102.148 32.4575 101.837 32.7628C101.529 33.0681 101.359 33.4763 101.326 33.9876Z" fill="#E5E5E7"/>
<path d="M96.5804 37.4805L94.3638 31.6211H95.4062L96.6572 35.1301C96.7925 35.509 96.9169 35.9025 97.0303 36.3108C97.1181 36.0018 97.2406 35.6303 97.3979 35.1963L98.6927 31.6211H99.7078L97.5021 37.4805H96.5804Z" fill="#E5E5E7"/>
<path d="M92.4658 30.5337V29.3916H93.4534V30.5337H92.4658ZM92.4658 37.48V31.6206H93.4534V37.48H92.4658Z" fill="#E5E5E7"/>
<path d="M88.707 37.4801V31.6207H89.5959V32.509C89.8226 32.0933 90.0311 31.8193 90.2213 31.6869C90.4152 31.5545 90.6274 31.4883 90.8578 31.4883C91.1906 31.4883 91.529 31.5949 91.8728 31.8083L91.5326 32.7297C91.2912 32.5862 91.0498 32.5145 90.8084 32.5145C90.5926 32.5145 90.3987 32.5807 90.2268 32.7131C90.0549 32.8419 89.9324 33.0221 89.8592 33.2538C89.7495 33.6069 89.6946 33.9931 89.6946 34.4125V37.4801H88.707Z" fill="#E5E5E7"/>
<path d="M80.7241 37.48V29.3916H83.4949C84.1203 29.3916 84.5977 29.4302 84.9269 29.5075C85.3878 29.6141 85.781 29.8072 86.1065 30.0868C86.5308 30.4472 86.8472 30.9089 87.0557 31.4716C87.2678 32.0307 87.3739 32.6707 87.3739 33.3916C87.3739 34.0059 87.3026 34.5503 87.1599 35.0248C87.0173 35.4993 86.8344 35.8928 86.6113 36.2055C86.3882 36.5144 86.1431 36.759 85.8761 36.9393C85.6127 37.1158 85.2927 37.2501 84.9159 37.342C84.5428 37.434 84.113 37.48 83.6265 37.48H80.7241ZM81.7885 36.5255H83.5058C84.0362 36.5255 84.4514 36.4758 84.7513 36.3765C85.0549 36.2772 85.2963 36.1374 85.4755 35.9572C85.7279 35.7034 85.9236 35.3632 86.0626 34.9365C86.2053 34.5061 86.2766 33.9857 86.2766 33.3751C86.2766 32.5291 86.1376 31.8799 85.8596 31.4275C85.5853 30.9714 85.2506 30.6661 84.8556 30.5116C84.5702 30.4013 84.1112 30.3461 83.4784 30.3461H81.7885V36.5255Z" fill="#E5E5E7"/>
<path d="M74.9963 37.48V36.7406C74.6269 37.3218 74.0837 37.6124 73.3668 37.6124C72.9022 37.6124 72.4743 37.4836 72.0829 37.2262C71.6952 36.9687 71.3934 36.6101 71.1776 36.1503C70.9654 35.6868 70.8594 35.1553 70.8594 34.5558C70.8594 33.971 70.9563 33.4413 71.1502 32.9668C71.344 32.4886 71.6348 32.1227 72.0225 31.8689C72.4103 31.6151 72.8437 31.4882 73.3229 31.4882C73.674 31.4882 73.9868 31.5636 74.2611 31.7144C74.5354 31.8615 74.7585 32.0546 74.9305 32.2937V29.3916H75.9126V37.48H74.9963ZM71.8744 34.5558C71.8744 35.3061 72.0317 35.8671 72.3463 36.2386C72.6608 36.6101 73.0321 36.7958 73.46 36.7958C73.8917 36.7958 74.2574 36.6193 74.5574 36.2662C74.861 35.9094 75.0128 35.3668 75.0128 34.6386C75.0128 33.8367 74.8591 33.2482 74.5519 32.873C74.2446 32.4978 73.8661 32.3103 73.4161 32.3103C72.9772 32.3103 72.6096 32.4905 72.3133 32.8509C72.0207 33.2114 71.8744 33.7797 71.8744 34.5558Z" fill="#E5E5E7"/>
<path d="M64.5933 34.5504C64.5933 33.4653 64.8932 32.6616 65.4931 32.1393C65.9942 31.7053 66.605 31.4883 67.3256 31.4883C68.1267 31.4883 68.7814 31.7531 69.2898 32.2828C69.7982 32.8088 70.0525 33.537 70.0525 34.4676C70.0525 35.2217 69.9391 35.8157 69.7123 36.2497C69.4892 36.6801 69.1618 37.0148 68.7302 37.2539C68.3022 37.4929 67.834 37.6125 67.3256 37.6125C66.5099 37.6125 65.8497 37.3495 65.3449 36.8235C64.8438 36.2975 64.5933 35.5398 64.5933 34.5504ZM65.6083 34.5504C65.6083 35.3007 65.7711 35.8635 66.0966 36.2387C66.4221 36.6102 66.8318 36.7959 67.3256 36.7959C67.8157 36.7959 68.2236 36.6083 68.5491 36.2332C68.8747 35.858 69.0374 35.286 69.0374 34.5173C69.0374 33.7927 68.8728 33.2446 68.5436 32.8731C68.2181 32.4979 67.8121 32.3104 67.3256 32.3104C66.8318 32.3104 66.4221 32.4961 66.0966 32.8676C65.7711 33.2391 65.6083 33.8 65.6083 34.5504Z" fill="#E5E5E7"/>
<path d="M58.3389 34.5504C58.3389 33.4653 58.6388 32.6616 59.2387 32.1393C59.7398 31.7053 60.3506 31.4883 61.0712 31.4883C61.8723 31.4883 62.527 31.7531 63.0354 32.2828C63.5439 32.8088 63.7981 33.537 63.7981 34.4676C63.7981 35.2217 63.6847 35.8157 63.4579 36.2497C63.2348 36.6801 62.9074 37.0148 62.4758 37.2539C62.0478 37.4929 61.5796 37.6125 61.0712 37.6125C60.2555 37.6125 59.5953 37.3495 59.0905 36.8235C58.5894 36.2975 58.3389 35.5398 58.3389 34.5504ZM59.3539 34.5504C59.3539 35.3007 59.5167 35.8635 59.8422 36.2387C60.1677 36.6102 60.5774 36.7959 61.0712 36.7959C61.5613 36.7959 61.9692 36.6083 62.2947 36.2332C62.6203 35.858 62.783 35.286 62.783 34.5173C62.783 33.7927 62.6184 33.2446 62.2892 32.8731C61.9637 32.4979 61.5577 32.3104 61.0712 32.3104C60.5774 32.3104 60.1677 32.4961 59.8422 32.8676C59.5167 33.2391 59.3539 33.8 59.3539 34.5504Z" fill="#E5E5E7"/>
<path d="M56.1826 37.48V29.3916H57.1702V37.48H56.1826Z" fill="#E5E5E7"/>
<path d="M48.792 37.48V29.3916H51.8096C52.4241 29.3916 52.9161 29.4744 53.2855 29.6399C53.6586 29.8017 53.9494 30.0537 54.1579 30.3958C54.3701 30.7341 54.4761 31.0891 54.4761 31.4606C54.4761 31.8063 54.3829 32.1319 54.1963 32.4372C54.0098 32.7424 53.7281 32.9889 53.3514 33.1765C53.8379 33.3199 54.211 33.5645 54.4707 33.9103C54.734 34.256 54.8657 34.6643 54.8657 35.1351C54.8657 35.514 54.7852 35.8671 54.6243 36.1944C54.467 36.5181 54.2713 36.7682 54.0372 36.9448C53.8031 37.1213 53.5087 37.2556 53.1539 37.3475C52.8027 37.4358 52.3711 37.48 51.859 37.48H48.792ZM49.8564 32.7903H51.5957C52.0675 32.7903 52.4059 32.759 52.6107 32.6965C52.8814 32.6155 53.0844 32.4813 53.2197 32.2937C53.3587 32.1061 53.4282 31.8707 53.4282 31.5875C53.4282 31.319 53.3642 31.0836 53.2362 30.8813C53.1081 30.6753 52.9253 30.5355 52.6875 30.462C52.4497 30.3847 52.0419 30.3461 51.464 30.3461H49.8564V32.7903ZM49.8564 36.5255H51.859C52.2028 36.5255 52.4443 36.5126 52.5833 36.4869C52.8283 36.4427 53.0332 36.3691 53.1978 36.2662C53.3624 36.1632 53.4977 36.0142 53.6038 35.8193C53.7098 35.6206 53.7629 35.3926 53.7629 35.1351C53.7629 34.8335 53.6861 34.5723 53.5324 34.3517C53.3788 34.1273 53.1648 33.971 52.8905 33.8827C52.6198 33.7907 52.2285 33.7448 51.7164 33.7448H49.8564V36.5255Z" fill="#E5E5E7"/>
<path d="M177.546 5.79688H186.025V8.22671H180.178V11.8064H184.687V14.2362H180.178V18.5535H186.219V20.9833H177.546V5.79688Z" fill="#FFFAFE"/>
<path d="M176.162 5.79688L171.459 20.9833H168.352L163.649 5.79688H166.281L169.905 17.6423L173.53 5.79688H176.162Z" fill="#FFFAFE"/>
<path d="M159.762 5.79688H162.394V20.9833H159.762V5.79688Z" fill="#FFFAFE"/>
<path d="M153.52 21.2871C152.183 21.2871 151.003 20.9616 149.982 20.3108C148.975 19.6599 148.191 18.7415 147.63 17.5555C147.07 16.3551 146.789 14.9666 146.789 13.3901C146.789 11.7992 147.084 10.4107 147.674 9.22469C148.263 8.02424 149.076 7.10582 150.112 6.46944C151.147 5.81859 152.319 5.49316 153.628 5.49316C154.908 5.49316 156.088 5.73181 157.166 6.2091L156.864 8.85588C156.303 8.62446 155.807 8.4509 155.376 8.3352C154.959 8.21949 154.491 8.16164 153.973 8.16164C152.621 8.16164 151.564 8.62446 150.802 9.55011C150.054 10.4758 149.68 11.7558 149.68 13.3901C149.68 15.0534 150.025 16.3406 150.716 17.2518C151.42 18.163 152.434 18.6186 153.758 18.6186C154.203 18.6186 154.606 18.5535 154.966 18.4233V15.7982H153.24V13.3684H157.598V20.1806C157.109 20.5277 156.512 20.7953 155.807 20.9833C155.102 21.1858 154.34 21.2871 153.52 21.2871Z" fill="#FFFAFE"/>
<path d="M134.909 21.2871C133.672 21.2871 132.565 20.9616 131.587 20.3108C130.623 19.6455 129.868 18.7198 129.321 17.5338C128.775 16.3334 128.501 14.9521 128.501 13.3901C128.501 11.8281 128.775 10.4541 129.321 9.26808C129.868 8.06763 130.623 7.14198 131.587 6.49113C132.565 5.82582 133.672 5.49316 134.909 5.49316C136.146 5.49316 137.246 5.81859 138.21 6.46944C139.188 7.12028 139.95 8.04593 140.497 9.24639C141.043 10.4468 141.317 11.8281 141.317 13.3901C141.317 14.9521 141.043 16.3334 140.497 17.5338C139.95 18.7343 139.188 19.6599 138.21 20.3108C137.246 20.9616 136.146 21.2871 134.909 21.2871ZM134.909 18.6186C136.074 18.6186 136.966 18.1413 137.584 17.1867C138.203 16.2321 138.512 14.9666 138.512 13.3901C138.512 11.8136 138.203 10.5481 137.584 9.5935C136.966 8.63893 136.074 8.16164 134.909 8.16164C133.744 8.16164 132.852 8.63893 132.234 9.5935C131.615 10.5481 131.306 11.8136 131.306 13.3901C131.306 14.9666 131.615 16.2321 132.234 17.1867C132.852 18.1413 133.744 18.6186 134.909 18.6186Z" fill="#FFFAFE"/>
<path d="M121.645 8.22671H118.02V5.79688H127.901V8.22671H124.277V20.9833H121.645V8.22671Z" fill="#FFFAFE"/>
<path d="M101.72 5.79688H106.596C107.833 5.79688 108.933 6.1006 109.897 6.70806C110.861 7.31552 111.616 8.19055 112.162 9.33315C112.709 10.4757 112.982 11.8281 112.982 13.3901C112.982 14.9521 112.709 16.3044 112.162 17.447C111.616 18.5896 110.861 19.4647 109.897 20.0721C108.933 20.6796 107.833 20.9833 106.596 20.9833H101.72V5.79688ZM106.596 18.5535C107.747 18.5535 108.617 18.0979 109.207 17.1867C109.796 16.2755 110.091 15.01 110.091 13.3901C110.091 11.7702 109.796 10.5047 109.207 9.59349C108.617 8.6823 107.747 8.22671 106.596 8.22671H104.352V18.5535H106.596Z" fill="#FFFAFE"/>
<path d="M90.9966 5.79688H99.4753V8.22671H93.6286V11.8064H98.1377V14.2362H93.6286V18.5535H99.6695V20.9833H90.9966V5.79688Z" fill="#FFFAFE"/>
<path d="M83.1308 8.22671H79.5063V5.79688H89.3874V8.22671H85.7629V20.9833H83.1308V8.22671Z" fill="#FFFAFE"/>
<path d="M75.3813 5.79688H78.0134V20.9833H75.3813V5.79688Z" fill="#FFFAFE"/>
<path d="M62.3223 5.79688H65.0191L70.0243 15.2992V5.79688H72.6564V20.9833H70.3479L64.9543 10.8735V20.9833H62.3223V5.79688Z" fill="#FFFAFE"/>
<path d="M54.2075 21.287C52.4241 21.287 51.0793 20.7447 50.1731 19.6599C49.267 18.5607 48.814 17.0493 48.814 15.1257V5.79688H51.446V14.4098C51.446 15.7838 51.6402 16.8324 52.0285 17.5555C52.4313 18.2642 53.1576 18.6186 54.2075 18.6186C55.2719 18.6186 55.9982 18.2642 56.3865 17.5555C56.7749 16.8324 56.9691 15.7838 56.9691 14.4098V5.79688H59.6011V15.1257C59.6011 17.0493 59.1481 18.5607 58.2419 19.6599C57.3358 20.7447 55.991 21.287 54.2075 21.287Z" fill="#FFFAFE"/>
</svg>
