<svg width="304" height="69" viewBox="0 0 304 69" fill="none" xmlns="http://www.w3.org/2000/svg">
<path fill-rule="evenodd" clip-rule="evenodd" d="M23.803 8.37168L27.6754 16.7627L31.5477 8.37167C31.9394 7.69979 32.1641 6.91696 32.1641 6.08123C32.1641 3.58155 30.1544 1.55516 27.6754 1.55516C25.1963 1.55516 23.1867 3.58155 23.1867 6.08123C23.1867 6.91696 23.4113 7.69979 23.803 8.37168Z" fill="#C5161D"/>
<path fill-rule="evenodd" clip-rule="evenodd" d="M7.20409 57.9098C-2.31237 46.3498 1.99655 1.55469 1.99655 1.55469C1.99655 1.55469 23.4525 13.5035 23.4525 24.9996C23.4525 36.4958 15.1933 38.4873 15.1933 38.4873C27.6719 42.0176 27.6719 57.2251 27.6719 57.2251C27.6719 57.2251 28.3901 41.1124 40.1505 38.4873C40.0017 38.4122 39.8478 38.3362 39.6896 38.2581C36.7955 36.8287 32.4825 34.6985 31.8015 24.9996C31.0833 14.7708 47.7664 4.47739 53.3473 1.55469C53.3473 1.55469 58.1951 43.2791 47.6017 57.9098C37.0084 72.5404 16.7206 69.4698 7.20409 57.9098ZM46.0487 50.9734C51.9102 41.7775 49.7122 9.14095 49.7122 9.14095C49.2385 9.44064 48.686 9.77148 48.0791 10.1349C43.4026 12.9352 35.4946 17.6705 35.4946 25.0048C35.4946 33.6745 44.0422 38.0512 46.854 39.1296C35.3904 44.7795 30.1797 48.2864 28.9291 62.606C36.7066 61.0709 40.1872 60.1694 46.0487 50.9734ZM5.99152 9.14095C5.99152 9.14095 3.7935 41.7775 9.655 50.9734C15.5165 60.1694 18.9971 61.0709 26.7746 62.606C25.524 48.2864 20.3133 44.7795 8.84975 39.1296C11.6615 38.0512 20.2091 33.6745 20.2091 25.0048C20.2091 17.6705 12.3011 12.9352 7.62463 10.1349C7.01772 9.77148 6.46523 9.44064 5.99152 9.14095Z" fill="#222222"/>
<path fill-rule="evenodd" clip-rule="evenodd" d="M2.25701 1.0805L1.99613 1.55458L1.45999 1.50239L1.53904 0.680664L2.25701 1.0805ZM16.7943 38.4477C17.5987 38.0588 18.6445 37.4303 19.6897 36.4509C21.8654 34.4121 23.9908 30.8959 23.9908 24.9995C23.9908 21.9597 22.5759 18.9441 20.5327 16.1642C18.4847 13.3776 15.7657 10.774 13.0656 8.54695C10.3628 6.31769 7.66271 4.45252 5.63974 3.14529C4.62774 2.49133 3.78393 1.97619 3.19234 1.62409C2.89651 1.44802 2.66367 1.31268 2.5043 1.22108C2.42462 1.17528 2.36329 1.14041 2.32164 1.11686L2.27408 1.09006L2.26167 1.0831L2.25744 1.08074C2.25718 1.0806 2.25701 1.0805 1.99613 1.55458C1.45999 1.50239 1.45997 1.50262 1.45993 1.50303L1.45681 1.53591C1.45474 1.55783 1.45169 1.59039 1.44773 1.63329C1.4398 1.71911 1.42822 1.8463 1.41354 2.0125C1.38417 2.3449 1.34239 2.83333 1.29264 3.45872C1.19314 4.70948 1.06172 6.50831 0.933838 8.70273C0.678112 13.0908 0.436303 19.0642 0.492608 25.402C0.548887 31.7369 0.903073 38.4504 1.84347 44.3136C2.77967 50.1507 4.31094 55.2453 6.78882 58.2553C11.6472 64.1569 19.2412 67.8812 26.9716 68.2724C34.7172 68.6643 42.6209 65.7086 48.0367 58.2287C50.7579 54.4704 52.4589 49.0212 53.4988 43.025C54.5409 37.016 54.929 30.3967 54.9852 24.2506C55.0415 18.1023 54.7658 12.4146 54.4762 8.26468C54.3313 6.18933 54.1829 4.49763 54.0707 3.3241C54.0145 2.73732 53.9674 2.28002 53.9343 1.96903C53.9178 1.81353 53.9047 1.6946 53.8958 1.61434C53.8913 1.57421 53.8878 1.54375 53.8855 1.52322L53.8828 1.4999L53.8821 1.49389L53.882 1.49231C53.8819 1.49191 53.8819 1.49168 53.3469 1.55458L53.8819 1.49168L53.7912 0.711003L53.0982 1.07393C50.2844 2.54747 44.6783 5.87457 39.8566 10.1299C37.4456 12.2577 35.2129 14.633 33.6255 17.1409C32.039 19.6473 31.0733 22.3243 31.2638 25.0377C31.6098 29.9654 32.8839 33.0368 34.4941 35.0677C35.8184 36.738 37.3426 37.6661 38.6487 38.3414C33.402 40.0887 30.5439 44.5631 28.9973 48.6476C28.4108 50.1965 28.0071 51.7025 27.73 53.0067C27.4943 51.8006 27.1424 50.4216 26.6169 48.992C25.1467 44.9927 22.2956 40.55 16.7943 38.4477ZM15.0674 37.9602L15.0679 37.9601L15.0801 37.9569C15.092 37.9538 15.1113 37.9485 15.1376 37.941C15.1903 37.9258 15.2708 37.9014 15.3751 37.8659C15.5838 37.7948 15.8874 37.6796 16.2542 37.506C16.9883 37.1587 17.9714 36.5799 18.9554 35.6579C20.9093 33.827 22.9135 30.5994 22.9135 24.9995C22.9135 22.2913 21.6464 19.5023 19.6665 16.8085C17.6916 14.1214 15.0465 11.5822 12.3826 9.38503C9.72142 7.19008 7.05755 5.34954 5.05752 4.05713C4.05803 3.41126 3.22558 2.90309 2.6438 2.55683C2.57839 2.5179 2.51615 2.48101 2.4572 2.44621C2.43189 2.74111 2.40115 3.10961 2.3665 3.54518C2.26753 4.78931 2.13666 6.5804 2.00928 8.76615C1.75447 13.1384 1.51383 19.0862 1.56985 25.3923C1.6259 31.7011 1.97882 38.3539 2.90701 44.141C3.83939 49.9543 5.33818 54.794 7.61853 57.5641C12.2767 63.2225 19.5848 66.8135 27.0257 67.19C34.4515 67.5657 41.9884 64.7414 47.1659 57.5906C49.7414 54.0337 51.407 48.7807 52.4375 42.8388C53.4658 36.9096 53.852 30.3545 53.908 24.2406C53.9639 18.129 53.6898 12.4712 53.4015 8.34058C53.2574 6.27566 53.1098 4.59334 52.9983 3.42791C52.9597 3.02422 52.9254 2.68258 52.8971 2.40857C49.9686 4.00329 44.9321 7.09232 40.567 10.9446C38.1994 13.0341 36.0472 15.3327 34.5342 17.723C33.0202 20.1148 32.1698 22.5603 32.3384 24.9613C32.6734 29.7325 33.8963 32.5757 35.3363 34.3919C36.7794 36.2121 38.4814 37.0578 39.9266 37.7716C40.0843 37.8495 40.2403 37.9265 40.3914 38.0027L41.7465 38.6859L40.2668 39.0162C34.6444 40.2712 31.6256 44.7511 30.004 49.0334C29.1958 51.1679 28.7462 53.2264 28.4991 54.7535C28.3757 55.5161 28.3031 56.1439 28.2615 56.5794C28.2407 56.7971 28.2276 56.9666 28.2198 57.0807C28.2159 57.1377 28.2133 57.1809 28.2117 57.2093C28.2109 57.2235 28.2104 57.234 28.21 57.2407L28.2097 57.2479L28.2096 57.2493C28.2096 57.2493 28.2096 57.2495 28.2032 57.2491L27.1409 57.2252C27.1329 57.2252 27.1329 57.2253 27.1329 57.2253L27.1329 57.224L27.1328 57.2175C27.1328 57.2128 27.1327 57.206 27.1326 57.1971L27.1325 57.1885C27.1322 57.162 27.1315 57.1217 27.13 57.0682C27.1271 56.9611 27.1212 56.8016 27.1094 56.596C27.0857 56.1849 27.0381 55.5904 26.9425 54.8648C26.7512 53.412 26.3689 51.442 25.6065 49.3679C24.0815 45.2196 21.0616 40.7104 15.0471 39.0088L13.0554 38.4453L15.0662 37.9605L15.0668 37.9604L15.0674 37.9602ZM5.51463 8.19929L6.27785 8.68214C6.74484 8.97758 7.29115 9.30475 7.89972 9.66917L7.91756 9.67985C10.2474 11.075 13.436 12.9843 16.0413 15.4769C18.654 17.9764 20.7473 21.1263 20.7473 25.0047C20.7473 29.5376 18.5079 32.9335 15.9489 35.3119C13.9375 37.1813 11.7076 38.4438 10.1436 39.1671C15.3367 41.7589 19.2616 44.0111 22.0495 47.2627C25.0435 50.7547 26.6802 55.3385 27.3107 62.5585L27.3734 63.2764L26.6704 63.1377C22.7949 62.3727 19.8863 61.7501 17.2171 60.1261C14.5394 58.4968 12.1501 55.8924 9.20115 51.2658C7.66846 48.8612 6.69553 44.9955 6.07611 40.6341C5.45354 36.2506 5.17804 31.2845 5.08624 26.6193C4.99439 21.952 5.08623 17.5745 5.20095 14.3645C5.25831 12.7592 5.32143 11.4452 5.37023 10.5321C5.39463 10.0755 5.41546 9.71907 5.4302 9.47654C5.43758 9.35527 5.44343 9.26247 5.44744 9.19985L5.45206 9.12876L5.45365 9.1047C5.45367 9.10439 5.45369 9.10422 5.9911 9.14085L5.45369 9.10422L5.51463 8.19929ZM6.47431 10.0748C6.46561 10.2285 6.4561 10.4006 6.44597 10.5903C6.39746 11.4978 6.33465 12.8054 6.27754 14.4035C6.1633 17.6002 6.07198 21.9566 6.16331 26.5979C6.25469 31.2413 6.52871 36.1586 7.14257 40.4808C7.75957 44.8251 8.70994 48.4874 10.108 50.6808C13.0205 55.2502 15.3024 57.6945 17.7747 59.1988C20.1028 60.6153 22.6419 61.2272 26.1704 61.9337C25.507 55.2585 23.928 51.1129 21.2337 47.9705C18.4239 44.6933 14.3548 42.4464 8.61235 39.6161L7.49908 39.0674L8.65745 38.6232C10.0212 38.1002 12.7948 36.7678 15.2179 34.5158C17.6356 32.2688 19.67 29.1414 19.67 25.0047C19.67 21.5489 17.8094 18.6639 15.2989 16.2622C12.7879 13.8598 9.69378 12.0047 7.3487 10.6004L7.34436 10.5978C7.04131 10.4164 6.74997 10.2419 6.47431 10.0748ZM50.1882 8.19929L50.2492 9.10422L49.7118 9.14085C50.2492 9.10422 50.2492 9.10439 50.2492 9.1047L50.2508 9.12876L50.2554 9.19985C50.2595 9.26247 50.2653 9.35527 50.2727 9.47654C50.2874 9.71907 50.3082 10.0755 50.3327 10.5321C50.3814 11.4452 50.4446 12.7592 50.5019 14.3645C50.6166 17.5745 50.7085 21.952 50.6166 26.6193C50.5248 31.2845 50.2493 36.2506 49.6268 40.6341C49.0073 44.9955 48.0344 48.8612 46.5017 51.2658C43.5528 55.8924 41.1635 58.4968 38.4858 60.1261C35.8166 61.7501 32.9079 62.3727 29.0324 63.1377L28.3295 63.2764L28.3921 62.5585C29.0227 55.3385 30.6593 50.7547 33.6534 47.2627C36.4412 44.0111 40.3662 41.7589 45.5592 39.1671C43.9953 38.4438 41.7654 37.1813 39.754 35.3119C37.1949 32.9335 34.9556 29.5376 34.9556 25.0047C34.9556 21.1263 37.0489 17.9764 39.6616 15.4769C42.2669 12.9843 45.4554 11.075 47.7853 9.67985L47.8032 9.66916C48.4117 9.30475 48.958 8.97758 49.425 8.68214L50.1882 8.19929ZM49.2286 10.0748C48.9528 10.242 48.6614 10.4165 48.3582 10.598L48.3542 10.6004C46.0091 12.0047 42.915 13.8598 40.404 16.2622C37.8935 18.6639 36.0329 21.5489 36.0329 25.0047C36.0329 29.1414 38.0673 32.2688 40.485 34.5158C42.908 36.7678 45.6817 38.1002 47.0454 38.6232L48.2038 39.0674L47.0905 39.6161C41.348 42.4464 37.279 44.6933 34.4691 47.9705C31.7749 51.1129 30.1959 55.2585 29.5324 61.9337C33.061 61.2272 35.6 60.6153 37.9282 59.1988C40.4005 57.6945 42.6823 55.2502 45.5949 50.6808C46.9929 48.4874 47.9433 44.8251 48.5603 40.4808C49.1742 36.1586 49.4482 31.2413 49.5396 26.5979C49.6309 21.9566 49.5396 17.6002 49.4253 14.4035C49.3682 12.8054 49.3054 11.4978 49.2569 10.5903C49.2468 10.4006 49.2373 10.2285 49.2286 10.0748Z" fill="#222222"/>
<path d="M299.384 58.2967L299.612 59.699C299.167 59.793 298.77 59.8401 298.419 59.8401C297.847 59.8401 297.402 59.7489 297.087 59.5667C296.771 59.3844 296.549 59.1463 296.42 58.8523C296.292 58.5524 296.228 57.9262 296.228 56.9737V51.5849H295.07V50.3502H296.228V48.0306L297.797 47.0781V50.3502H299.384V51.5849H297.797V57.0619C297.797 57.5146 297.823 57.8057 297.876 57.935C297.934 58.0644 298.025 58.1673 298.148 58.2437C298.276 58.3202 298.457 58.3584 298.691 58.3584C298.866 58.3584 299.097 58.3378 299.384 58.2967Z" fill="#777777"/>
<path d="M285.945 59.7168V50.3503H287.366V51.6821C288.049 50.6531 289.037 50.1387 290.329 50.1387C290.89 50.1387 291.404 50.2416 291.872 50.4474C292.345 50.6473 292.699 50.9119 292.933 51.2411C293.166 51.5704 293.33 51.9614 293.424 52.4141C293.482 52.7081 293.511 53.2226 293.511 53.9576V59.7168H291.933V54.0193C291.933 53.3725 291.872 52.8904 291.749 52.5729C291.626 52.2495 291.407 51.9937 291.092 51.8056C290.782 51.6115 290.416 51.5145 289.996 51.5145C289.324 51.5145 288.742 51.7291 288.251 52.1584C287.766 52.5876 287.523 53.4019 287.523 54.6014V59.7168H285.945Z" fill="#777777"/>
<path d="M282.321 56.7005L283.952 56.9033C283.695 57.8617 283.219 58.6055 282.523 59.1347C281.828 59.6638 280.939 59.9284 279.858 59.9284C278.496 59.9284 277.415 59.508 276.614 58.6672C275.819 57.8205 275.422 56.6358 275.422 55.1129C275.422 53.5372 275.825 52.3142 276.632 51.444C277.438 50.5738 278.484 50.1387 279.77 50.1387C281.015 50.1387 282.032 50.565 282.821 51.4175C283.61 52.2701 284.005 53.4695 284.005 55.0159C284.005 55.11 284.002 55.2511 283.996 55.4392H277.053C277.111 56.4682 277.4 57.2561 277.92 57.8029C278.441 58.3497 279.089 58.6231 279.867 58.6231C280.445 58.6231 280.939 58.4703 281.348 58.1645C281.757 57.8588 282.082 57.3707 282.321 56.7005ZM277.14 54.1339H282.339C282.269 53.3461 282.07 52.7552 281.743 52.3612C281.24 51.7497 280.589 51.444 279.788 51.444C279.063 51.444 278.452 51.688 277.956 52.176C277.465 52.664 277.193 53.3167 277.14 54.1339Z" fill="#777777"/>
<path d="M269.557 59.716L266.016 50.3496H267.681L269.68 55.9589C269.896 56.5645 270.095 57.1936 270.276 57.8463C270.417 57.3524 270.612 56.7585 270.864 56.0647L272.933 50.3496H274.555L271.03 59.716H269.557Z" fill="#777777"/>
<path d="M255.234 59.7166V46.7871H264.527V48.3129H256.935V52.2729H264.045V53.7899H256.935V58.1908H264.825V59.7166H255.234Z" fill="#777777"/>
<path d="M240.949 63.3232L240.774 61.8327C241.119 61.9268 241.42 61.9738 241.677 61.9738C242.027 61.9738 242.308 61.915 242.518 61.7974C242.729 61.6799 242.901 61.5152 243.036 61.3035C243.135 61.1448 243.296 60.7509 243.518 60.1217C243.547 60.0335 243.594 59.9042 243.658 59.7337L240.125 50.3496H241.826L243.763 55.7737C244.015 56.4616 244.24 57.1848 244.438 57.9433C244.62 57.2142 244.836 56.5027 245.087 55.8089L247.077 50.3496H248.655L245.113 59.8748C244.734 60.9037 244.438 61.6122 244.228 62.0003C243.947 62.5236 243.626 62.9058 243.264 63.1468C242.901 63.3938 242.469 63.5173 241.966 63.5173C241.662 63.5173 241.323 63.4526 240.949 63.3232Z" fill="#777777"/>
<path d="M239.47 58.2967L239.698 59.699C239.253 59.793 238.856 59.8401 238.505 59.8401C237.932 59.8401 237.488 59.7489 237.173 59.5667C236.857 59.3844 236.635 59.1463 236.506 58.8523C236.378 58.5524 236.313 57.9262 236.313 56.9737V51.5849H235.156V50.3502H236.313V48.0306L237.883 47.0781V50.3502H239.47V51.5849H237.883V57.0619C237.883 57.5146 237.909 57.8057 237.962 57.935C238.02 58.0644 238.111 58.1673 238.233 58.2437C238.362 58.3202 238.543 58.3584 238.777 58.3584C238.952 58.3584 239.183 58.3378 239.47 58.2967Z" fill="#777777"/>
<path d="M232.031 48.6128V46.7871H233.609V48.6128H232.031ZM232.031 59.7166V50.3502H233.609V59.7166H232.031Z" fill="#777777"/>
<path d="M226.031 59.7168V50.3503H227.452V51.7703C227.814 51.1059 228.147 50.6678 228.451 50.4562C228.761 50.2445 229.1 50.1387 229.468 50.1387C230 50.1387 230.54 50.3092 231.09 50.6502L230.546 52.1231C230.16 51.8938 229.775 51.7791 229.389 51.7791C229.044 51.7791 228.734 51.885 228.46 52.0966C228.185 52.3024 227.989 52.5905 227.872 52.9609C227.697 53.5254 227.609 54.1428 227.609 54.8131V59.7168H226.031Z" fill="#777777"/>
<path d="M222.126 58.5614C221.541 59.0612 220.977 59.4139 220.434 59.6197C219.896 59.8255 219.318 59.9284 218.698 59.9284C217.675 59.9284 216.889 59.6785 216.34 59.1788C215.79 58.6731 215.516 58.0293 215.516 57.2473C215.516 56.7886 215.618 56.3712 215.822 55.9949C216.033 55.6127 216.305 55.307 216.638 55.0776C216.977 54.8483 217.357 54.6749 217.778 54.5573C218.087 54.475 218.555 54.3956 219.18 54.3192C220.454 54.1663 221.392 53.984 221.994 53.7723C222 53.5548 222.003 53.4166 222.003 53.3578C222.003 52.7111 221.854 52.2554 221.556 51.9908C221.153 51.6321 220.554 51.4528 219.759 51.4528C219.017 51.4528 218.467 51.5851 218.111 51.8497C217.76 52.1084 217.5 52.5699 217.33 53.2344L215.787 53.0227C215.928 52.3583 216.159 51.8232 216.48 51.4175C216.801 51.0059 217.266 50.6914 217.874 50.4738C218.482 50.2504 219.186 50.1387 219.987 50.1387C220.782 50.1387 221.428 50.2327 221.924 50.4209C222.421 50.6091 222.786 50.8472 223.02 51.1353C223.254 51.4175 223.418 51.7762 223.511 52.2113C223.564 52.4817 223.59 52.9698 223.59 53.6753V55.792C223.59 57.2678 223.622 58.2027 223.686 58.5967C223.757 58.9847 223.891 59.3581 224.09 59.7168H222.442C222.278 59.3875 222.173 59.0024 222.126 58.5614ZM221.994 55.0159C221.422 55.2511 220.562 55.451 219.417 55.6156C218.768 55.7097 218.309 55.8156 218.041 55.9331C217.772 56.0507 217.564 56.2242 217.418 56.4535C217.272 56.6769 217.199 56.9268 217.199 57.2032C217.199 57.6265 217.357 57.9793 217.672 58.2615C217.994 58.5437 218.461 58.6849 219.075 58.6849C219.683 58.6849 220.224 58.5526 220.697 58.288C221.17 58.0175 221.518 57.65 221.74 57.1855C221.91 56.8269 221.994 56.2977 221.994 55.598V55.0159Z" fill="#777777"/>
<path d="M206.055 59.7166V46.7871H207.633V51.4262C208.369 50.5678 209.298 50.1386 210.421 50.1386C211.11 50.1386 211.709 50.2767 212.218 50.5531C212.726 50.8235 213.089 51.1998 213.305 51.682C213.527 52.1641 213.638 52.8638 213.638 53.781V59.7166H212.06V53.781C212.06 52.9873 211.888 52.4111 211.543 52.0524C211.204 51.6879 210.722 51.5056 210.096 51.5056C209.629 51.5056 209.187 51.6291 208.772 51.876C208.363 52.1171 208.071 52.4463 207.896 52.8638C207.72 53.2813 207.633 53.8575 207.633 54.5925V59.7166H206.055Z" fill="#777777"/>
<path d="M202.458 55.1832L204.159 55.6153C203.802 57.0206 203.159 58.0936 202.23 58.8345C201.307 59.5694 200.176 59.9369 198.837 59.9369C197.452 59.9369 196.324 59.6547 195.453 59.0902C194.588 58.5199 193.928 57.6967 193.472 56.6207C193.022 55.5448 192.797 54.3894 192.797 53.1546C192.797 51.8082 193.051 50.6352 193.56 49.6356C194.074 48.6302 194.802 47.8688 195.743 47.3514C196.689 46.8281 197.73 46.5664 198.864 46.5664C200.149 46.5664 201.231 46.8957 202.107 47.5542C202.984 48.2127 203.595 49.1388 203.94 50.3324L202.265 50.7293C201.967 49.7885 201.535 49.1035 200.968 48.6743C200.401 48.2451 199.688 48.0305 198.829 48.0305C197.841 48.0305 197.014 48.2686 196.348 48.7448C195.687 49.2211 195.222 49.862 194.954 50.6675C194.685 51.4672 194.55 52.2933 194.55 53.1458C194.55 54.2453 194.708 55.2067 195.024 56.0298C195.345 56.8471 195.842 57.4586 196.514 57.8643C197.186 58.27 197.914 58.4729 198.697 58.4729C199.65 58.4729 200.456 58.1965 201.117 57.6438C201.777 57.0911 202.224 56.2709 202.458 55.1832Z" fill="#777777"/>
<path d="M183.454 58.1906C182.934 58.7727 182.367 59.2108 181.753 59.5048C181.14 59.7929 180.476 59.9369 179.763 59.9369C178.448 59.9369 177.405 59.4901 176.633 58.5963C176.008 57.8673 175.695 57.0529 175.695 56.1533C175.695 55.3537 175.95 54.6334 176.458 53.9925C176.972 53.3457 177.738 52.7783 178.755 52.2903C178.176 51.62 177.791 51.0762 177.598 50.6587C177.405 50.2412 177.308 49.8385 177.308 49.4504C177.308 48.6743 177.609 48.0011 178.211 47.4307C178.819 46.8545 179.582 46.5664 180.5 46.5664C181.376 46.5664 182.092 46.8369 182.648 47.3778C183.209 47.9187 183.489 48.5685 183.489 49.3269C183.489 50.5558 182.68 51.6053 181.061 52.4755L183.366 55.4301C183.629 54.9127 183.834 54.313 183.98 53.6309L185.62 53.9837C185.339 55.1126 184.959 56.0416 184.48 56.7707C185.07 57.5586 185.739 58.22 186.487 58.7551L185.427 60.0163C184.79 59.6047 184.132 58.9962 183.454 58.1906ZM180.245 51.4525C180.929 51.0468 181.37 50.691 181.569 50.3853C181.774 50.0795 181.876 49.7415 181.876 49.371C181.876 48.9301 181.736 48.5714 181.455 48.295C181.181 48.0128 180.836 47.8717 180.421 47.8717C179.994 47.8717 179.638 48.0099 179.351 48.2862C179.071 48.5626 178.93 48.9007 178.93 49.3005C178.93 49.5004 178.98 49.7121 179.079 49.9355C179.185 50.153 179.339 50.3853 179.544 50.6322L180.245 51.4525ZM182.463 56.9383L179.57 53.331C178.717 53.8426 178.141 54.3188 177.843 54.7598C177.545 55.1949 177.396 55.6271 177.396 56.0563C177.396 56.5796 177.604 57.1235 178.019 57.6879C178.434 58.2524 179.021 58.5346 179.781 58.5346C180.254 58.5346 180.742 58.3876 181.245 58.0936C181.753 57.7938 182.16 57.4086 182.463 56.9383Z" fill="#777777"/>
<path d="M167.493 56.7005L169.124 56.9033C168.867 57.8617 168.391 58.6055 167.695 59.1347C166.999 59.6638 166.111 59.9284 165.03 59.9284C163.668 59.9284 162.587 59.508 161.786 58.6672C160.991 57.8205 160.594 56.6358 160.594 55.1129C160.594 53.5372 160.997 52.3142 161.804 51.444C162.61 50.5738 163.656 50.1387 164.942 50.1387C166.187 50.1387 167.204 50.565 167.993 51.4175C168.782 52.2701 169.177 53.4695 169.177 55.0159C169.177 55.11 169.174 55.2511 169.168 55.4392H162.224C162.283 56.4682 162.572 57.2561 163.092 57.8029C163.613 58.3497 164.261 58.6231 165.039 58.6231C165.617 58.6231 166.111 58.4703 166.52 58.1645C166.929 57.8588 167.254 57.3707 167.493 56.7005ZM162.312 54.1339H167.511C167.441 53.3461 167.242 52.7552 166.915 52.3612C166.412 51.7497 165.76 51.444 164.96 51.444C164.235 51.444 163.624 51.688 163.127 52.176C162.636 52.664 162.365 53.3167 162.312 54.1339Z" fill="#777777"/>
<path d="M154.729 59.716L151.188 50.3496H152.853L154.852 55.9589C155.068 56.5645 155.267 57.1936 155.448 57.8463C155.589 57.3524 155.784 56.7585 156.036 56.0647L158.105 50.3496H159.727L156.202 59.716H154.729Z" fill="#777777"/>
<path d="M148.156 48.6128V46.7871H149.734V48.6128H148.156ZM148.156 59.7166V50.3502H149.734V59.7166H148.156Z" fill="#777777"/>
<path d="M142.148 59.7168V50.3503H143.569V51.7703C143.931 51.1059 144.264 50.6678 144.568 50.4562C144.878 50.2445 145.217 50.1387 145.585 50.1387C146.117 50.1387 146.658 50.3092 147.207 50.6502L146.663 52.1231C146.278 51.8938 145.892 51.7791 145.506 51.7791C145.161 51.7791 144.852 51.885 144.577 52.0966C144.302 52.3024 144.106 52.5905 143.99 52.9609C143.814 53.5254 143.726 54.1428 143.726 54.8131V59.7168H142.148Z" fill="#777777"/>
<path d="M129.391 59.7166V46.7871H133.818C134.817 46.7871 135.58 46.8488 136.106 46.9723C136.843 47.1428 137.471 47.4515 137.991 47.8984C138.669 48.4746 139.175 49.2125 139.508 50.1121C139.847 51.0058 140.016 52.0289 140.016 53.1813C140.016 54.1632 139.902 55.0334 139.674 55.7919C139.446 56.5504 139.154 57.1795 138.798 57.6793C138.441 58.1732 138.049 58.5642 137.623 58.8523C137.202 59.1345 136.691 59.3492 136.089 59.4961C135.492 59.6431 134.806 59.7166 134.028 59.7166H129.391ZM131.091 58.1908H133.835C134.683 58.1908 135.346 58.1115 135.826 57.9527C136.311 57.794 136.696 57.5705 136.983 57.2824C137.386 56.8767 137.699 56.3329 137.921 55.6508C138.149 54.9629 138.263 54.1309 138.263 53.1549C138.263 51.8025 138.041 50.7647 137.597 50.0415C137.158 49.3125 136.623 48.8244 135.992 48.5775C135.536 48.4011 134.803 48.3129 133.792 48.3129H131.091V58.1908Z" fill="#777777"/>
<path d="M120.235 59.7166V58.5348C119.645 59.4638 118.777 59.9283 117.632 59.9283C116.889 59.9283 116.205 59.7225 115.58 59.3109C114.961 58.8994 114.478 58.3261 114.133 57.5911C113.794 56.8503 113.625 56.0006 113.625 55.0423C113.625 54.1074 113.78 53.2607 114.09 52.5022C114.399 51.7378 114.864 51.1528 115.484 50.7471C116.103 50.3414 116.796 50.1386 117.561 50.1386C118.122 50.1386 118.622 50.2591 119.061 50.5002C119.499 50.7353 119.855 51.044 120.13 51.4262V46.7871H121.699V59.7166H120.235ZM115.247 55.0423C115.247 56.2417 115.498 57.1384 116.001 57.7322C116.503 58.3261 117.097 58.623 117.781 58.623C118.47 58.623 119.055 58.3408 119.534 57.7763C120.019 57.206 120.262 56.3387 120.262 55.1745C120.262 53.8928 120.016 52.952 119.525 52.3523C119.034 51.7525 118.429 51.4527 117.71 51.4527C117.009 51.4527 116.422 51.7408 115.948 52.317C115.481 52.8932 115.247 53.8016 115.247 55.0423Z" fill="#777777"/>
<path d="M103.617 55.0335C103.617 53.299 104.096 52.0143 105.055 51.1794C105.856 50.4856 106.832 50.1387 107.983 50.1387C109.263 50.1387 110.309 50.562 111.122 51.4087C111.934 52.2495 112.34 53.4137 112.34 54.9013C112.34 56.1066 112.159 57.0562 111.797 57.75C111.44 58.4379 110.917 58.973 110.228 59.3552C109.544 59.7373 108.796 59.9284 107.983 59.9284C106.68 59.9284 105.625 59.508 104.818 58.6672C104.018 57.8264 103.617 56.6152 103.617 55.0335ZM105.239 55.0335C105.239 56.233 105.499 57.1326 106.019 57.7323C106.54 58.3262 107.194 58.6231 107.983 58.6231C108.766 58.6231 109.418 58.3233 109.938 57.7235C110.458 57.1238 110.718 56.2095 110.718 54.9806C110.718 53.8223 110.455 52.9462 109.929 52.3524C109.409 51.7527 108.76 51.4528 107.983 51.4528C107.194 51.4528 106.54 51.7497 106.019 52.3436C105.499 52.9374 105.239 53.8341 105.239 55.0335Z" fill="#777777"/>
<path d="M93.625 55.0335C93.625 53.299 94.1043 52.0143 95.0628 51.1794C95.8635 50.4856 96.8396 50.1387 97.991 50.1387C99.2709 50.1387 100.317 50.562 101.13 51.4087C101.942 52.2495 102.348 53.4137 102.348 54.9013C102.348 56.1066 102.167 57.0562 101.805 57.75C101.448 58.4379 100.925 58.973 100.235 59.3552C99.5515 59.7373 98.8034 59.9284 97.991 59.9284C96.6876 59.9284 95.6326 59.508 94.8261 58.6672C94.0254 57.8264 93.625 56.6152 93.625 55.0335ZM95.2469 55.0335C95.2469 56.233 95.507 57.1326 96.0272 57.7323C96.5473 58.3262 97.2019 58.6231 97.991 58.6231C98.7742 58.6231 99.4258 58.3233 99.946 57.7235C100.466 57.1238 100.726 56.2095 100.726 54.9806C100.726 53.8223 100.463 52.9462 99.9372 52.3524C99.4171 51.7527 98.7683 51.4528 97.991 51.4528C97.2019 51.4528 96.5473 51.7497 96.0272 52.3436C95.507 52.9374 95.2469 53.8341 95.2469 55.0335Z" fill="#777777"/>
<path d="M90.1797 59.7166V46.7871H91.7577V59.7166H90.1797Z" fill="#777777"/>
<path d="M78.3672 59.7166V46.7871H83.189C84.1709 46.7871 84.9571 46.9194 85.5474 47.184C86.1435 47.4427 86.6082 47.8455 86.9413 48.3923C87.2803 48.9332 87.4498 49.5006 87.4498 50.0945C87.4498 50.6472 87.3008 51.1675 87.0027 51.6555C86.7046 52.1435 86.2546 52.5375 85.6526 52.8374C86.4299 53.0667 87.0261 53.4577 87.441 54.0104C87.8619 54.5631 88.0723 55.2157 88.0723 55.9683C88.0723 56.5739 87.9437 57.1384 87.6865 57.6617C87.4352 58.1791 87.1225 58.5789 86.7484 58.8611C86.3744 59.1434 85.9039 59.358 85.337 59.505C84.7759 59.6461 84.0862 59.7166 83.2679 59.7166H78.3672ZM80.068 52.22H82.8471C83.6011 52.22 84.1417 52.17 84.469 52.07C84.9015 51.9407 85.2259 51.7261 85.4422 51.4262C85.6643 51.1264 85.7753 50.75 85.7753 50.2973C85.7753 49.8681 85.673 49.4918 85.4685 49.1684C85.2639 48.8391 84.9717 48.6157 84.5918 48.4981C84.2119 48.3746 83.5602 48.3129 82.6367 48.3129H80.068V52.22ZM80.068 58.1908H83.2679C83.8173 58.1908 84.2031 58.1703 84.4252 58.1291C84.8168 58.0586 85.1441 57.941 85.4071 57.7763C85.6701 57.6117 85.8864 57.3736 86.0558 57.0619C86.2253 56.7444 86.3101 56.3799 86.3101 55.9683C86.3101 55.4862 86.1874 55.0687 85.9419 54.7159C85.6964 54.3573 85.3545 54.1074 84.9161 53.9663C84.4836 53.8193 83.8583 53.7458 83.04 53.7458H80.068V58.1908Z" fill="#777777"/>
<path d="M284.102 9.06934H297.65V12.9535H288.307V18.6757H295.512V22.5599H288.307V29.4612H297.96V33.3454H284.102V9.06934Z" fill="#222222"/>
<path d="M281.885 9.06934L274.37 33.3454H269.406L261.891 9.06934H266.096L271.888 28.0046L277.679 9.06934H281.885Z" fill="#222222"/>
<path d="M255.68 9.06934H259.885V33.3454H255.68V9.06934Z" fill="#222222"/>
<path d="M245.709 33.8311C243.571 33.8311 241.687 33.3109 240.055 32.2705C238.446 31.2301 237.194 29.7619 236.298 27.8661C235.401 25.9471 234.953 23.7276 234.953 21.2075C234.953 18.6643 235.424 16.4448 236.367 14.549C237.309 12.63 238.607 11.1619 240.262 10.1446C241.917 9.10419 243.79 8.58398 245.881 8.58398C247.927 8.58398 249.811 8.96546 251.535 9.72843L251.052 13.9594C250.156 13.5895 249.363 13.312 248.673 13.1271C248.007 12.9421 247.26 12.8496 246.433 12.8496C244.272 12.8496 242.583 13.5895 241.365 15.0692C240.17 16.5488 239.573 18.595 239.573 21.2075C239.573 23.8663 240.124 25.924 241.227 27.3806C242.353 28.8371 243.974 29.5654 246.088 29.5654C246.8 29.5654 247.444 29.4614 248.018 29.2533V25.057H245.261V21.1729H252.224V32.0624C251.443 32.6173 250.489 33.045 249.363 33.3456C248.237 33.6692 247.019 33.8311 245.709 33.8311Z" fill="#222222"/>
<path d="M215.965 33.8311C213.989 33.8311 212.219 33.3109 210.656 32.2705C209.116 31.2069 207.91 29.7273 207.037 27.8314C206.163 25.9125 205.727 23.7045 205.727 21.2075C205.727 18.7106 206.163 16.5142 207.037 14.6183C207.91 12.6994 209.116 11.2197 210.656 10.1793C212.219 9.11575 213.989 8.58398 215.965 8.58398C217.942 8.58398 219.7 9.10419 221.24 10.1446C222.802 11.185 224.02 12.6647 224.894 14.5836C225.767 16.5026 226.204 18.7106 226.204 21.2075C226.204 23.7045 225.767 25.9125 224.894 27.8314C224.02 29.7504 222.802 31.2301 221.24 32.2705C219.7 33.3109 217.942 33.8311 215.965 33.8311ZM215.965 29.5654C217.827 29.5654 219.252 28.8025 220.24 27.2765C221.228 25.7506 221.722 23.7276 221.722 21.2075C221.722 18.6874 221.228 16.6644 220.24 15.1385C219.252 13.6126 217.827 12.8496 215.965 12.8496C214.104 12.8496 212.679 13.6126 211.69 15.1385C210.702 16.6644 210.208 18.6874 210.208 21.2075C210.208 23.7276 210.702 25.7506 211.69 27.2765C212.679 28.8025 214.104 29.5654 215.965 29.5654Z" fill="#222222"/>
<path d="M194.776 12.9535H188.984V9.06934H204.773V12.9535H198.982V33.3454H194.776V12.9535Z" fill="#222222"/>
<path d="M162.938 9.06934H170.728C172.705 9.06934 174.463 9.55486 176.003 10.5259C177.543 11.4969 178.749 12.8957 179.623 14.7222C180.496 16.5487 180.933 18.7104 180.933 21.2074C180.933 23.7043 180.496 25.866 179.623 27.6925C178.749 29.519 177.543 30.9178 176.003 31.8888C174.463 32.8599 172.705 33.3454 170.728 33.3454H162.938V9.06934ZM170.728 29.4612C172.567 29.4612 173.957 28.7329 174.9 27.2764C175.842 25.8198 176.313 23.7968 176.313 21.2074C176.313 18.6179 175.842 16.5949 174.9 15.1383C173.957 13.6818 172.567 12.9535 170.728 12.9535H167.143V29.4612H170.728Z" fill="#222222"/>
<path d="M145.805 9.06934H159.353V12.9535H150.01V18.6757H157.215V22.5599H150.01V29.4612H159.663V33.3454H145.805V9.06934Z" fill="#222222"/>
<path d="M133.229 12.9535H127.438V9.06934H143.226V12.9535H137.435V33.3454H133.229V12.9535Z" fill="#222222"/>
<path d="M120.852 9.06934H125.057V33.3454H120.852V9.06934Z" fill="#222222"/>
<path d="M99.9844 9.06934H104.294L112.291 24.2592V9.06934H116.497V33.3454H112.808L104.19 17.1845V33.3454H99.9844V9.06934Z" fill="#222222"/>
<path d="M87.0168 33.8309C84.167 33.8309 82.0181 32.9639 80.5703 31.2299C79.1224 29.4728 78.3984 27.0567 78.3984 23.9818V9.06934H82.6042V22.8373C82.6042 25.0337 82.9144 26.7099 83.535 27.8659C84.1785 28.9988 85.3391 29.5653 87.0168 29.5653C88.7174 29.5653 89.878 28.9988 90.4985 27.8659C91.1191 26.7099 91.4293 25.0337 91.4293 22.8373V9.06934H95.6351V23.9818C95.6351 27.0567 94.9111 29.4728 93.4633 31.2299C92.0154 32.9639 89.8665 33.8309 87.0168 33.8309Z" fill="#222222"/>
</svg>
