<svg width="191" height="38" viewBox="0 0 191 38" fill="none" xmlns="http://www.w3.org/2000/svg">
<path d="M50.4359 12.5789C53.7566 9.2253 59.3795 8.67967 63.2407 12.5789C64.9601 14.3154 65.8091 16.6031 65.8091 18.9611V19.1284C65.8091 21.4862 64.9601 23.774 63.2407 25.5102C59.3795 29.4095 53.7566 28.8638 50.4359 25.5102C45.9325 20.9632 44.0333 19.0447 44.0333 19.0447C44.0333 19.0447 45.9325 17.1265 50.4359 12.5789ZM31.125 19.0443C31.125 19.0443 34.9433 22.9003 43.9954 32.0417C50.6707 38.7828 61.9734 39.8795 69.7349 32.0417C73.1918 28.5507 74.8976 23.9523 74.8976 19.2123V18.8764C74.8976 14.1362 73.1918 9.53765 69.7349 6.04712C61.9734 -1.79073 50.6707 -0.694072 43.9954 6.04712C34.9433 15.1884 31.125 19.0443 31.125 19.0443Z" fill="#61C9B7"/>
<path d="M44.0327 19.0449C44.0327 19.0449 45.9319 20.964 50.4353 25.511C53.7559 28.8647 59.3789 29.4103 63.24 25.511C64.9595 23.7749 65.8085 21.4871 65.8085 19.1293V19.0452H74.897V19.2132C74.897 23.9532 73.1912 28.5516 69.7343 32.0426C61.9728 39.8804 50.6701 38.7837 43.9948 32.0426C34.9426 22.9012 31.125 19.0452 31.125 19.0452L44.0327 19.0449Z" fill="#4C9C8F"/>
<path d="M31.1299 19.0447C31.1299 19.0447 29.2303 20.9633 24.7273 25.5103C21.4064 28.8642 15.7836 29.4099 11.9224 25.5103C10.2031 23.7742 9.35415 21.4862 9.35415 19.1283V18.9612C9.35415 16.6032 10.2031 14.3157 11.9224 12.5789C15.7836 8.67968 21.4064 9.22528 24.7273 12.5789C29.2303 17.1266 31.1299 19.0447 31.1299 19.0447ZM44.0386 19.0447C44.0386 19.0447 40.22 15.1885 31.1679 6.0471C24.4926 -0.694066 13.1896 -1.79073 5.42813 6.0471C1.97168 9.53808 0.265625 14.1363 0.265625 18.8763V19.2124C0.265625 23.9524 1.97169 28.5506 5.42813 32.0415C13.1896 39.8796 24.4926 38.7829 31.1679 32.0415C40.22 22.9002 44.0386 19.0447 44.0386 19.0447Z" fill="#ED1C24"/>
<path d="M31.1299 19.0452C31.1299 19.0452 29.2303 20.9637 24.7273 25.5107C21.4064 28.8647 15.7836 29.4103 11.9227 25.5107C10.2031 23.7746 9.35434 21.4866 9.35434 19.1288V19.0449H0.265625V19.2129C0.265625 23.9529 1.97169 28.5511 5.42813 32.042C13.1896 39.88 24.4926 38.7834 31.1679 32.042C40.22 22.9007 44.0383 19.0452 44.0383 19.0452H31.1299Z" fill="#C4161D"/>
<path d="M44.0333 19.0449H31.125C31.125 19.0449 33.101 21.0408 37.5789 25.5625C42.057 21.0405 44.0327 19.0451 44.0333 19.0449Z" fill="#A61217"/>
<path d="M151.238 7.88268C151.622 7.88268 151.871 7.70637 151.871 7.35464C151.871 7.01421 151.622 6.84421 151.238 6.84421H150.356V7.88268H151.238ZM151.11 6.18135C151.511 6.18135 151.72 5.97618 151.72 5.6772C151.72 5.39541 151.511 5.19608 151.11 5.19608H150.356V6.18135H151.11ZM149.484 4.48633H151.169C152.15 4.48633 152.604 4.94399 152.604 5.58927C152.604 6.01723 152.371 6.29861 151.993 6.46318C152.441 6.60387 152.754 6.91456 152.754 7.41327C152.754 8.17578 152.162 8.59199 151.25 8.59199H149.484V4.48633Z" fill="#918F90"/>
<path d="M153.609 4.48633H154.486V7.82405H156.508V8.59199H153.609V4.48633Z" fill="#918F90"/>
<path d="M159.093 7.91162C159.807 7.91162 160.307 7.36643 160.307 6.5277C160.307 5.70655 159.813 5.16096 159.093 5.16096C158.378 5.16096 157.885 5.70655 157.885 6.5277C157.885 7.36643 158.384 7.91162 159.093 7.91162ZM159.093 4.41016C160.33 4.41016 161.201 5.29578 161.201 6.5277C161.201 7.77134 160.336 8.66867 159.093 8.66867C157.855 8.66867 156.984 7.77134 156.984 6.5277C156.984 5.29578 157.861 4.41016 159.093 4.41016Z" fill="#918F90"/>
<path d="M163.952 7.91162C164.666 7.91162 165.165 7.36643 165.165 6.5277C165.165 5.70655 164.672 5.16096 163.952 5.16096C163.237 5.16096 162.744 5.70655 162.744 6.5277C162.744 7.36643 163.243 7.91162 163.952 7.91162ZM163.952 4.41016C165.189 4.41016 166.06 5.29578 166.06 6.5277C166.06 7.77134 165.195 8.66867 163.952 8.66867C162.715 8.66867 161.844 7.77134 161.844 6.5277C161.844 5.29578 162.721 4.41016 163.952 4.41016Z" fill="#918F90"/>
<path d="M168.29 7.87053C169.144 7.87053 169.574 7.36051 169.574 6.52765C169.574 5.71825 169.115 5.20779 168.29 5.20779H167.768V7.87053H168.29ZM166.891 4.48633H168.227C169.679 4.48633 170.463 5.24297 170.463 6.52178C170.463 7.82992 169.731 8.59199 168.227 8.59199H166.891V4.48633Z" fill="#918F90"/>
<path d="M151.18 13.1887C151.651 13.1887 151.871 12.9304 151.871 12.5786C151.871 12.2328 151.651 11.9803 151.186 11.9803H150.361V13.1887H151.18ZM149.484 11.2705H151.186C152.354 11.2705 152.754 11.9158 152.754 12.5728C152.754 13.2239 152.348 13.8868 151.192 13.8868H150.361V15.3766H149.484V11.2705Z" fill="#918F90"/>
<path d="M153.492 11.2705H154.369V14.6081H156.39V15.3766H153.492V11.2705Z" fill="#918F90"/>
<path d="M158.37 13.9278H159.474L158.928 12.2562H158.916L158.37 13.9278ZM158.423 11.2705H159.428L160.891 15.3766H159.95L159.7 14.6081H158.15L157.9 15.3766H156.953L158.423 11.2705Z" fill="#918F90"/>
<path d="M161.809 14.2973C162.169 14.5203 162.593 14.6727 163.005 14.6727C163.441 14.6727 163.673 14.4909 163.673 14.2269C163.673 13.4584 161.478 13.9747 161.478 12.4204C161.478 11.7458 162.024 11.1943 162.97 11.1943C163.499 11.1943 163.976 11.3296 164.429 11.5465L164.103 12.2445C163.743 12.0624 163.365 11.9744 163.005 11.9744C162.616 11.9744 162.384 12.162 162.384 12.4086C162.384 13.1653 164.579 12.6314 164.579 14.2153C164.579 14.9073 164.057 15.4528 163.011 15.4528C162.401 15.4528 161.78 15.2415 161.391 14.9952L161.809 14.2973Z" fill="#918F90"/>
<path d="M165.414 11.2705H166.297L167.523 13.0242L168.754 11.2705H169.625V15.3766H168.789V12.5376L167.523 14.309L166.25 12.5376V15.3766H165.414V11.2705Z" fill="#918F90"/>
<path d="M171.698 13.9278H172.802L172.256 12.2562H172.244L171.698 13.9278ZM171.751 11.2705H172.756L174.22 15.3766H173.278L173.028 14.6081H171.478L171.228 15.3766H170.281L171.751 11.2705Z" fill="#918F90"/>
<path d="M149.73 21.0814C150.091 21.3042 150.515 21.4567 150.927 21.4567C151.363 21.4567 151.595 21.2747 151.595 21.011C151.595 20.2426 149.4 20.7586 149.4 19.2041C149.4 18.5297 149.945 17.9785 150.892 17.9785C151.421 17.9785 151.897 18.1134 152.35 18.3303L152.025 19.0284C151.665 18.8465 151.287 18.7586 150.927 18.7586C150.538 18.7586 150.306 18.9462 150.306 19.1925C150.306 19.9495 152.501 19.4154 152.501 20.9991C152.501 21.6915 151.978 22.237 150.933 22.237C150.323 22.237 149.702 22.0255 149.312 21.7793L149.73 21.0814Z" fill="#918F90"/>
<path d="M154.373 18.8407H153.031V18.0547H156.591V18.8407H155.25V22.1604H154.373V18.8407Z" fill="#918F90"/>
<path d="M157.266 18.0547H160.228V18.8289H158.143V19.7323H160.001V20.4184H158.143V21.3864H160.251V22.1604H157.266V18.0547Z" fill="#918F90"/>
<path d="M161.172 18.0547H162.054L163.28 19.8083L164.511 18.0547H165.383V22.1604H164.546V19.3215L163.28 21.0931L162.008 19.3215V22.1604H161.172V18.0547Z" fill="#918F90"/>
<path d="M169.87 17.9785C170.433 17.9785 170.921 18.1661 171.345 18.5063L170.863 19.1163C170.584 18.8874 170.282 18.7409 169.881 18.7409C169.132 18.7409 168.638 19.2687 168.638 20.0844C168.638 20.9288 169.12 21.4743 169.881 21.4743C170.294 21.4743 170.625 21.3218 170.892 21.0519L171.415 21.6149C170.979 22.0255 170.474 22.237 169.841 22.237C168.603 22.237 167.75 21.3336 167.75 20.0844C167.75 18.8699 168.627 17.9785 169.87 17.9785Z" fill="#918F90"/>
<path d="M172.109 18.0547H175.072V18.8289H172.987V19.7323H174.845V20.4184H172.987V21.3864H175.095V22.1604H172.109V18.0547Z" fill="#918F90"/>
<path d="M176.016 18.0547H176.893V21.3921H178.914V22.1604H176.016V18.0547Z" fill="#918F90"/>
<path d="M179.625 18.0547H180.502V21.3921H182.523V22.1604H179.625V18.0547Z" fill="#918F90"/>
<path d="M183.551 21.0814C183.911 21.3042 184.335 21.4567 184.748 21.4567C185.183 21.4567 185.415 21.2747 185.415 21.011C185.415 20.2426 183.22 20.7586 183.22 19.2041C183.22 18.5297 183.766 17.9785 184.713 17.9785C185.241 17.9785 185.717 18.1134 186.171 18.3303L185.845 19.0284C185.485 18.8465 185.108 18.7586 184.748 18.7586C184.358 18.7586 184.126 18.9462 184.126 19.1925C184.126 19.9495 186.321 19.4154 186.321 20.9991C186.321 21.6915 185.799 22.237 184.753 22.237C184.143 22.237 183.522 22.0255 183.133 21.7793L183.551 21.0814Z" fill="#918F90"/>
<path d="M151.437 28.2635C152.151 28.2635 152.65 27.718 152.65 26.8793C152.65 26.0581 152.157 25.5125 151.437 25.5125C150.722 25.5125 150.228 26.0581 150.228 26.8793C150.228 27.718 150.728 28.2635 151.437 28.2635ZM151.437 24.7617C152.674 24.7617 153.545 25.6474 153.545 26.8793C153.545 28.1229 152.679 29.0202 151.437 29.0202C150.199 29.0202 149.328 28.1229 149.328 26.8793C149.328 25.6474 150.205 24.7617 151.437 24.7617Z" fill="#918F90"/>
<path d="M156.16 26.7565C156.625 26.7565 156.851 26.4986 156.851 26.1464C156.851 25.7947 156.619 25.5481 156.166 25.5481H155.26V26.7565H156.16ZM154.383 24.8389H156.172C157.334 24.8389 157.734 25.4836 157.734 26.1407C157.734 26.6218 157.496 27.0614 156.99 27.2788L157.769 28.9444H156.822L156.195 27.4194H155.26V28.9444H154.383V24.8389Z" fill="#918F90"/>
<path d="M160.518 24.7617C161.122 24.7617 161.604 24.9732 162.016 25.2722L161.558 25.8705C161.261 25.6595 160.93 25.5246 160.542 25.5246C159.781 25.5246 159.293 26.0874 159.293 26.8734C159.293 27.7239 159.757 28.2578 160.542 28.2578C160.814 28.2578 161.065 28.1991 161.25 28.0877V27.2666H160.327V26.6623H162.051V28.5395C161.645 28.8385 161.117 29.0202 160.513 29.0202C159.223 29.0202 158.398 28.1284 158.398 26.868C158.398 25.6826 159.223 24.7617 160.518 24.7617Z" fill="#918F90"/>
<path d="M164.042 27.4957H165.146L164.6 25.8237H164.588L164.042 27.4957ZM164.095 24.8389H165.1L166.563 28.9444H165.622L165.373 28.1761H163.822L163.572 28.9444H162.625L164.095 24.8389Z" fill="#918F90"/>
<path d="M167.219 24.8389H168.055L169.867 27.5367V24.8389H170.704V28.9444H169.867L168.055 26.2583V28.9444H167.219V24.8389Z" fill="#918F90"/>
<path d="M171.934 27.8646C172.294 28.0877 172.718 28.2401 173.13 28.2401C173.566 28.2401 173.798 28.0579 173.798 27.7942C173.798 27.0258 171.603 27.5422 171.603 25.9878C171.603 25.3133 172.148 24.7617 173.095 24.7617C173.624 24.7617 174.1 24.897 174.553 25.1139L174.228 25.812C173.868 25.6303 173.49 25.5423 173.13 25.5423C172.741 25.5423 172.509 25.7299 172.509 25.9761C172.509 26.7327 174.704 26.1988 174.704 27.7825C174.704 28.4747 174.181 29.0202 173.136 29.0202C172.526 29.0202 171.905 28.8089 171.516 28.5625L171.934 27.8646Z" fill="#918F90"/>
<path d="M150.504 33.8228C150.26 33.9811 150.091 34.2037 150.091 34.4914C150.091 34.8551 150.376 35.1069 150.852 35.1069C151.16 35.1069 151.438 35.0074 151.659 34.8315C151.253 34.515 150.863 34.1748 150.504 33.8228ZM150.102 33.3768C149.94 33.1485 149.83 32.896 149.83 32.603C149.83 32.0104 150.329 31.5469 151.009 31.5469C151.525 31.5469 151.914 31.7878 152.211 32.1213L151.659 32.5914C151.473 32.3914 151.259 32.2682 151.038 32.2682C150.788 32.2682 150.643 32.4441 150.643 32.6435C150.643 32.8722 150.806 33.0662 150.98 33.2478C151.328 33.5942 151.7 33.917 152.095 34.2329C152.182 34.0162 152.228 33.77 152.228 33.5H152.995C152.995 33.9283 152.885 34.3385 152.687 34.6905C152.908 34.8551 153.14 35.019 153.373 35.1836L152.92 35.7699C152.693 35.6116 152.461 35.4414 152.228 35.2715C151.857 35.5997 151.363 35.8051 150.794 35.8051C149.859 35.8051 149.312 35.2187 149.312 34.5677C149.312 34.0338 149.656 33.6406 150.102 33.3768Z" fill="#918F90"/>
<path d="M156.67 32.4098H155.328V31.624H158.889V32.4098H157.547V35.7299H156.67V32.4098Z" fill="#918F90"/>
<path d="M159.57 31.624H160.447V35.7299H159.57V31.624Z" fill="#918F90"/>
<path d="M161.668 34.6497C162.028 34.873 162.452 35.0253 162.865 35.0253C163.3 35.0253 163.533 34.8431 163.533 34.5793C163.533 33.8109 161.337 34.3272 161.337 32.7729C161.337 32.0983 161.883 31.5469 162.83 31.5469C163.358 31.5469 163.835 31.6822 164.288 31.8986L163.962 32.5967C163.602 32.4152 163.225 32.327 162.865 32.327C162.475 32.327 162.244 32.5145 162.244 32.7613C162.244 33.5175 164.439 32.984 164.439 34.5677C164.439 35.2596 163.916 35.8051 162.871 35.8051C162.261 35.8051 161.639 35.594 161.25 35.3478L161.668 34.6497Z" fill="#918F90"/>
<path d="M165.426 34.6497C165.786 34.873 166.21 35.0253 166.623 35.0253C167.058 35.0253 167.29 34.8431 167.29 34.5793C167.29 33.8109 165.095 34.3272 165.095 32.7729C165.095 32.0983 165.641 31.5469 166.588 31.5469C167.116 31.5469 167.593 31.6822 168.046 31.8986L167.72 32.5967C167.36 32.4152 166.983 32.327 166.623 32.327C166.233 32.327 166.001 32.5145 166.001 32.7613C166.001 33.5175 168.197 32.984 168.197 34.5677C168.197 35.2596 167.674 35.8051 166.629 35.8051C166.019 35.8051 165.397 35.594 165.008 35.3478L165.426 34.6497Z" fill="#918F90"/>
<path d="M168.977 31.624H169.859V34.1694C169.859 34.7265 170.202 35.0437 170.695 35.0437C171.178 35.0437 171.526 34.7265 171.526 34.1694V31.624H172.409V34.1694C172.409 35.2723 171.694 35.8059 170.695 35.8059C169.691 35.8059 168.977 35.2723 168.977 34.1694V31.624Z" fill="#918F90"/>
<path d="M173.414 31.624H176.376V32.3985H174.291V33.3014H176.149V33.9876H174.291V34.9555H176.4V35.7299H173.414V31.624Z" fill="#918F90"/>
<path d="M177.48 34.6497C177.841 34.873 178.265 35.0253 178.677 35.0253C179.113 35.0253 179.345 34.8431 179.345 34.5793C179.345 33.8109 177.15 34.3272 177.15 32.7729C177.15 32.0983 177.695 31.5469 178.642 31.5469C179.171 31.5469 179.647 31.6822 180.1 31.8986L179.775 32.5967C179.414 32.4152 179.037 32.327 178.677 32.327C178.288 32.327 178.056 32.5145 178.056 32.7613C178.056 33.5175 180.251 32.984 180.251 34.5677C180.251 35.2596 179.728 35.8051 178.683 35.8051C178.073 35.8051 177.452 35.594 177.062 35.3478L177.48 34.6497Z" fill="#918F90"/>
<path d="M88.3813 2.19141C89.6414 2.19141 90.7329 2.6114 91.6808 3.3718L90.6029 4.73603C89.9794 4.22435 89.304 3.89649 88.408 3.89649C86.7324 3.89649 85.6281 5.07731 85.6281 6.90046C85.6281 8.78938 86.7057 10.0096 88.408 10.0096C89.3298 10.0096 90.0705 9.66831 90.6676 9.06489L91.8366 10.324C90.8626 11.2423 89.7328 11.7142 88.3166 11.7142C85.5498 11.7142 83.6406 9.69469 83.6406 6.90046C83.6406 4.185 85.602 2.19141 88.3813 2.19141Z" fill="#444142"/>
<path d="M95.4389 10.3103C95.9974 10.3103 96.439 10.0615 96.7379 9.70689V8.38241C95.6594 8.44774 94.6465 8.72328 94.6465 9.58921C94.6465 10.0222 94.9584 10.3103 95.4389 10.3103ZM96.7379 7.3067V6.70332C96.7379 6.1916 96.439 5.89012 95.7897 5.89012C95.127 5.89012 94.426 6.15225 93.5556 6.58523L92.8801 5.14227C93.828 4.65697 94.9192 4.3291 95.8802 4.3291C97.8807 4.3291 98.6731 5.32608 98.6731 6.76905V9.69432C98.6731 10.0745 98.8809 10.232 99.2317 10.232V11.5828C97.8935 11.5828 97.3483 11.386 96.9456 10.7173C96.374 11.347 95.7247 11.7139 94.7762 11.7139C93.5683 11.7139 92.7109 10.9534 92.7109 9.83835C92.7109 8.30327 94.1269 7.49051 96.7379 7.3067Z" fill="#444142"/>
<path d="M100.367 4.48627H102.212L102.303 5.29944C102.809 4.76179 103.536 4.31543 104.407 4.31543C105.979 4.31543 106.628 5.28606 106.628 6.87346V11.5432H104.692V6.83411C104.692 6.20434 104.433 5.79815 103.796 5.79815C103.238 5.79815 102.731 6.08667 102.316 6.59794V11.5432H100.367V4.48627Z" fill="#444142"/>
<path d="M110.54 10.3103C111.099 10.3103 111.541 10.0615 111.84 9.70689V8.38241C110.761 8.44774 109.748 8.72328 109.748 9.58921C109.748 10.0222 110.06 10.3103 110.54 10.3103ZM111.84 7.3067V6.70332C111.84 6.1916 111.541 5.89012 110.891 5.89012C110.229 5.89012 109.528 6.15225 108.657 6.58523L107.981 5.14227C108.93 4.65697 110.021 4.3291 110.982 4.3291C112.982 4.3291 113.775 5.32608 113.775 6.76905V9.69432C113.775 10.0745 113.982 10.232 114.334 10.232V11.5828C112.995 11.5828 112.45 11.386 112.047 10.7173C111.476 11.347 110.826 11.7139 109.878 11.7139C108.67 11.7139 107.812 10.9534 107.812 9.83835C107.812 8.30327 109.229 7.49051 111.84 7.3067Z" fill="#444142"/>
<path d="M119.796 9.52412V6.54649C119.38 6.08757 118.925 5.83799 118.367 5.83799C117.471 5.83799 117.029 6.57287 117.029 7.9371C117.029 9.31433 117.471 10.2062 118.367 10.2062C118.939 10.2062 119.367 9.99645 119.796 9.52412ZM115.094 7.9371C115.094 5.54951 116.185 4.32974 117.796 4.32974C118.562 4.32974 119.276 4.68399 119.796 5.27396V1.64062H121.731V11.5441H120.017L119.9 10.7179C119.355 11.2949 118.692 11.7145 117.756 11.7145C116.198 11.7145 115.094 10.4164 115.094 7.9371Z" fill="#444142"/>
<path d="M129.212 10.3103C129.771 10.3103 130.212 10.0615 130.511 9.70689V8.38241C129.433 8.44774 128.42 8.72328 128.42 9.58921C128.42 10.0222 128.732 10.3103 129.212 10.3103ZM130.511 7.3067V6.70332C130.511 6.1916 130.212 5.89012 129.563 5.89012C128.9 5.89012 128.199 6.15225 127.329 6.58523L126.653 5.14227C127.601 4.65697 128.692 4.3291 129.654 4.3291C131.654 4.3291 132.447 5.32608 132.447 6.76905V9.69432C132.447 10.0745 132.654 10.232 133.005 10.232V11.5828C131.667 11.5828 131.122 11.386 130.719 10.7173C130.147 11.347 129.498 11.7139 128.549 11.7139C127.341 11.7139 126.484 10.9534 126.484 9.83835C126.484 8.30327 127.9 7.49051 130.511 7.3067Z" fill="#444142"/>
<path d="M134.141 4.48627H135.985L136.076 5.29944C136.583 4.76179 137.31 4.31543 138.18 4.31543C139.752 4.31543 140.402 5.28606 140.402 6.87346V11.5432H138.466V6.83411C138.466 6.20434 138.206 5.79815 137.569 5.79815C137.011 5.79815 136.504 6.08667 136.089 6.59794V11.5432H134.141V4.48627Z" fill="#444142"/>
<path d="M87.9074 22.05C88.7648 22.05 89.323 21.6566 89.323 20.8694C89.323 20.1088 88.7648 19.7282 87.9074 19.7282H85.9333V22.05H87.9074ZM87.6217 18.2461C88.5176 18.2461 88.9853 17.7868 88.9853 17.1178C88.9853 16.4882 88.5176 16.0423 87.6217 16.0423H85.9333V18.2461H87.6217ZM83.9844 14.4551H87.7513C89.9466 14.4551 90.9601 15.4782 90.9601 16.9212C90.9601 17.8785 90.4404 18.5083 89.5961 18.8755C90.5962 19.1903 91.2975 19.8855 91.2975 21.0008C91.2975 22.7059 89.9727 23.6374 87.9336 23.6374H83.9844V14.4551Z" fill="#444142"/>
<path d="M92.6719 13.7324H94.6199V23.6362H92.6719V13.7324Z" fill="#444142"/>
<path d="M99.3713 22.3248C100.346 22.3248 100.904 21.4329 100.904 20.0553C100.904 18.7568 100.306 17.9041 99.3713 17.9041C98.4231 17.9041 97.8126 18.7568 97.8126 20.0553C97.8126 21.4329 98.3584 22.3248 99.3713 22.3248ZM99.3713 16.4219C101.372 16.4219 102.879 17.8647 102.879 20.0423C102.879 22.3641 101.462 23.8071 99.3713 23.8071C97.2672 23.8071 95.8516 22.3641 95.8516 20.0423C95.8516 17.8647 97.3583 16.4219 99.3713 16.4219Z" fill="#444142"/>
<path d="M107.27 22.3248C108.244 22.3248 108.803 21.4329 108.803 20.0553C108.803 18.7568 108.205 17.9041 107.27 17.9041C106.322 17.9041 105.711 18.7568 105.711 20.0553C105.711 21.4329 106.257 22.3248 107.27 22.3248ZM107.27 16.4219C109.27 16.4219 110.777 17.8647 110.777 20.0423C110.777 22.3641 109.361 23.8071 107.27 23.8071C105.166 23.8071 103.75 22.3641 103.75 20.0423C103.75 17.8647 105.257 16.4219 107.27 16.4219Z" fill="#444142"/>
<path d="M116.413 21.6161V18.6381C115.998 18.1791 115.543 17.9298 114.985 17.9298C114.088 17.9298 113.647 18.6646 113.647 20.0287C113.647 21.406 114.088 22.2982 114.985 22.2982C115.556 22.2982 115.985 22.0884 116.413 21.6161ZM111.711 20.0287C111.711 17.6415 112.802 16.4214 114.413 16.4214C115.179 16.4214 115.893 16.7756 116.413 17.3658V13.7324H118.349V23.6362H116.634L116.517 22.8097C115.972 23.3867 115.309 23.8067 114.374 23.8067C112.815 23.8067 111.711 22.5079 111.711 20.0287Z" fill="#444142"/>
<path d="M84.5289 33.3159C85.334 33.814 86.2822 34.1553 87.2046 34.1553C88.1789 34.1553 88.6986 33.7486 88.6986 33.1582C88.6986 31.4404 83.7887 32.5942 83.7887 29.1184C83.7887 27.6098 85.0093 26.377 87.1265 26.377C88.3086 26.377 89.3734 26.6784 90.3872 27.1642L89.6595 28.7248C88.8544 28.3182 88.0097 28.1214 87.2046 28.1214C86.3341 28.1214 85.8145 28.5414 85.8145 29.092C85.8145 30.7841 90.7249 29.5907 90.7249 33.1325C90.7249 34.6804 89.5559 35.9002 87.2176 35.9002C85.8537 35.9002 84.4642 35.4279 83.5938 34.8773L84.5289 33.3159Z" fill="#444142"/>
<path d="M93.6774 31.466H96.4439C96.4439 30.6007 96.1062 29.9186 95.2096 29.9186C94.4567 29.9186 93.859 30.4432 93.6774 31.466ZM95.1577 28.502C97.1713 28.502 98.2883 29.8268 98.2883 31.7286C98.2883 32.0043 98.2495 32.3715 98.2109 32.5812H93.6385C93.7293 33.7618 94.2878 34.3387 95.3268 34.3387C96.0154 34.3387 96.6647 34.1031 97.2493 33.7357L98.0678 34.9683C97.2108 35.5851 96.2097 35.9001 95.171 35.9001C93.1188 35.9001 91.6641 34.523 91.6641 32.1617C91.6641 29.9052 93.223 28.502 95.1577 28.502Z" fill="#444142"/>
<path d="M99.5156 28.6723H101.322L101.451 29.7611C101.984 28.8168 102.659 28.4756 103.438 28.4756C103.763 28.4756 104.049 28.5279 104.296 28.6066L104.01 30.4168C103.763 30.3251 103.465 30.2593 103.087 30.2593C102.373 30.2593 101.893 30.6922 101.464 31.5059V35.7296H99.5156V28.6723Z" fill="#444142"/>
<path d="M104.891 28.6719H106.8L108.268 33.6036H108.294L109.762 28.6719H111.593L109.281 35.7291H107.202L104.891 28.6719Z" fill="#444142"/>
<path d="M119.195 28.5146C120.039 28.5146 120.91 28.7769 121.675 29.3937L120.701 30.6532C120.312 30.3383 119.831 30.1018 119.247 30.1018C118.35 30.1018 117.61 30.8236 117.61 32.1615C117.61 33.5518 118.324 34.2995 119.247 34.2995C119.87 34.2995 120.286 34.0898 120.701 33.7226L121.767 34.8771C121 35.5586 120.195 35.8999 119.195 35.8999C117.168 35.8999 115.648 34.4958 115.648 32.1615C115.648 29.905 117.155 28.5146 119.195 28.5146Z" fill="#444142"/>
<path d="M124.209 31.466H126.975C126.975 30.6007 126.637 29.9186 125.741 29.9186C124.988 29.9186 124.39 30.4432 124.209 31.466ZM125.69 28.502C127.703 28.502 128.82 29.8268 128.82 31.7286C128.82 32.0043 128.781 32.3715 128.742 32.5812H124.17C124.261 33.7618 124.819 34.3387 125.858 34.3387C126.547 34.3387 127.196 34.1031 127.781 33.7357L128.599 34.9683C127.741 35.5851 126.741 35.9001 125.702 35.9001C123.65 35.9001 122.195 34.523 122.195 32.1617C122.195 29.9052 123.754 28.502 125.69 28.502Z" fill="#444142"/>
<path d="M130.365 33.7625C131.041 34.1432 131.794 34.3922 132.508 34.3922C133.158 34.3922 133.547 34.1959 133.547 33.7494C133.547 32.5949 129.781 33.3562 129.781 30.7196C129.781 29.2766 131.066 28.5156 132.56 28.5156C133.314 28.5156 134.171 28.6732 135.184 29.1455L134.483 30.4968C133.807 30.1685 133.054 30.011 132.599 30.011C132.028 30.011 131.664 30.2078 131.664 30.6404C131.664 31.7818 135.405 30.9687 135.405 33.6313C135.405 35.1007 134.197 35.9009 132.547 35.9009C131.482 35.9009 130.521 35.6255 129.625 35.1268L130.365 33.7625Z" fill="#444142"/>
<path d="M123.297 1.64062H125.246V3.30633H123.297V1.64062Z" fill="#444142"/>
<path d="M123.297 4.48633H125.246V11.5432H123.297V4.48633Z" fill="#444142"/>
<path d="M112.484 25.8262H114.433V27.4923H112.484V25.8262Z" fill="#444142"/>
<path d="M112.484 28.6719H114.433V35.7291H112.484V28.6719Z" fill="#444142"/>
</svg>
